<?xml version="1.0" standalone="no"?>
<!DOCTYPE svg PUBLIC "-//W3C//DTD SVG 1.1//EN" "http://www.w3.org/Graphics/SVG/1.1/DTD/svg11.dtd" >
<svg xmlns="http://www.w3.org/2000/svg">
<metadata></metadata>
<defs>
<font id="strangelove_textregular" horiz-adv-x="489" >
<font-face units-per-em="2048" ascent="1638" descent="-410" />
<missing-glyph horiz-adv-x="307" />
<glyph horiz-adv-x="2048" />
<glyph horiz-adv-x="2048" />
<glyph unicode="&#xd;" horiz-adv-x="2048" />
<glyph unicode=" "  horiz-adv-x="307" />
<glyph unicode="&#x09;" horiz-adv-x="307" />
<glyph unicode="&#xa0;" horiz-adv-x="307" />
<glyph unicode="!" horiz-adv-x="157" d="M53 432q0 74 2 111q6 327 6 372q0 54 -3 179t-3 182q0 7 5 11.5t10 4.5q6 0 11 -4t5 -10q0 -36 1 -120t1 -120q0 -69 -2 -104v-541q0 -138 6 -237q-6 -11 -16 -11q-14 0 -17 9q-6 264 -6 278zM59 12q0 25 21 25q9 0 15.5 -8t6.5 -17q0 -7 -6.5 -14.5t-13.5 -7.5 q-11 0 -17 7.5t-6 14.5z" />
<glyph unicode="&#x22;" horiz-adv-x="305" d="M53 1206q0 43 8 74q3 12 17 12q16 0 16 -14q-2 -31 -2 -86q0 -50 3 -111t3 -73q0 -6 -5.5 -9.5t-10.5 -3.5q-6 0 -11 5t-5 12q0 23 -6.5 90.5t-6.5 103.5zM217 1077q0 22 1 69t1 71q0 39 -2 57q0 16 16 16q17 0 17 -14q2 -23 2 -70q0 -23 -1 -69.5t-1 -71.5q0 -39 2 -57 q-3 -11 -16 -11q-14 0 -17 9q-2 25 -2 71z" />
<glyph unicode="#" horiz-adv-x="690" d="M25 414q0 7 14 14q49 -6 135 -10q7 27 23.5 98t27.5 111q23 80 76 237q-47 -2 -151 -2q-56 0 -115 15q-10 7 -10 10q0 12 16 12q37 -8 268 -8q7 22 27 87t30 100t23.5 89t20.5 97q1 2 2 7t2 7t5 4t11 2q1 0 3.5 -1t4 -2t3 -3.5t1.5 -5.5q-40 -185 -96 -377q25 0 59 3 t87 3q28 111 47 170q70 206 79 213q16 0 19 -10q0 -21 -9 -50.5t-24.5 -67.5t-19.5 -50l-60 -207q17 -1 129 -14q13 -3 13 -8q0 -15 -19 -15q-79 15 -131 15q-12 -41 -44.5 -175.5t-43.5 -175.5q-12 -43 -35 -110l199 8q9 0 28.5 2t28.5 2q17 -6 17 -14q0 -15 -17 -15 q-9 0 -28.5 -1t-28.5 -1q-111 -6 -207 -6q-9 -29 -28 -88t-29 -92.5t-24 -89t-23 -111.5q-1 -2 -2 -7t-2.5 -7t-5.5 -4t-11 -2q-1 0 -3 1t-3.5 1.5t-3.5 1.5t-3 3t-1 5q9 38 15.5 70t9.5 45t10 39.5t20 72.5l49 162l-88 4l-63 -4q-33 -138 -66 -244q-52 -152 -65 -157 q-12 0 -15 10q0 21 6.5 45t21.5 61.5t17 43.5l68 231q0 1 1 5.5t1 6.5q-64 0 -129 6q-14 3 -14 15zM205 418q12 0 42 -1t111 -1q34 124 65 233.5t42.5 152t19.5 75.5l-145 -11q-6 -4 -40 -107.5t-42 -133.5q-38 -138 -53 -207z" />
<glyph unicode="$" horiz-adv-x="438" d="M45 963q0 24 2 46.5t2 49.5q0 85 42 151t120 72q0 5 -1 28.5t-1 39.5q0 43 8 57q6 6 19 6q12 0 12 -14q-6 -14 -6 -53q0 -14 1 -35t1 -27q53 -5 96 -45q24 -23 37 -69t14.5 -77t1.5 -83v-15q0 -10 -16 -10q-13 0 -17 8q0 13 1 39t1 39q0 103 -43 148q-40 43 -88 43 q-77 0 -112 -62q-26 -46 -34.5 -83.5t-8.5 -94.5q0 -26 2 -61t2 -54q0 -67 28.5 -126t64.5 -94.5t89 -88t82 -92.5q43 -58 43 -164q0 -19 -8 -207q0 -3 1 -8.5t1 -9.5q0 -7 -2 -11q-28 -100 -135 -110q4 -12 4 -51q0 -18 -1 -40t-1 -26q0 -6 -5 -11t-12 -5q-14 0 -14 14 q0 4 1 28.5t1 39.5q0 7 -1 20.5t-1 20.5v8q-70 0 -102 37q-52 64 -52 209q0 20 1 57t1 53q3 10 17 10t14 -12v-76q0 -204 68 -249l57 -5q36 0 52 4t36 23q24 31 39 64q0 27 6 116.5t6 120.5q0 71 -20 115q-18 41 -54.5 81.5t-71.5 69.5t-73 73t-59 91q-35 74 -35 187z" />
<glyph unicode="%" horiz-adv-x="768" d="M45 1044q0 59 16.5 113t57.5 94.5t100 40.5q139 -35 139 -307q0 -79 -43 -136.5t-110 -57.5q-42 0 -73 17t-47 42t-25.5 62t-12 66t-2.5 66zM76 1047q0 -31 1 -54t7 -58t17 -57.5t33 -39.5t52 -17q72 0 107 51t35 129q0 89 -35.5 178t-83.5 89q-39 0 -71 -39.5t-47 -89 t-15 -92.5zM113 4l18 51q18 49 64.5 186.5t83.5 233t79 182.5q20 41 76 146t82 164q5 11 41 104.5t66.5 153t50.5 59.5q14 0 14 -18q-32 -59 -80 -174t-57 -136q-36 -80 -131 -271t-155 -335t-97 -287l-25 -67q-6 -6 -16 -6q-14 0 -14 14zM399 240q0 50 5 87t21 79t52.5 65 t91.5 23q154 0 154 -263q0 -48 -16.5 -101t-53 -95.5t-84.5 -42.5q-82 0 -126 71t-44 177zM432 238q0 -47 13.5 -96t46 -87.5t77.5 -38.5q49 0 85 88.5t36 174.5q0 80 -34 132t-103 52q-112 0 -121 -225z" />
<glyph unicode="&#x26;" horiz-adv-x="665" d="M45 262q0 165 40.5 277t141.5 200q-128 194 -135 305q0 5 -1 17t-1 18q0 166 131 199q25 6 64 6q74 0 108.5 -56.5t34.5 -140.5q0 -73 -22 -141q-14 -38 -40 -78.5t-45.5 -64t-56.5 -64.5q10 -17 30.5 -49.5t36 -59.5t27.5 -52l121 -250q5 13 17.5 50t18 54.5t17.5 50 t21 54t21.5 49t25.5 51.5q4 8 18 8q11 0 11 -12q0 -4 -10.5 -27.5t-29 -64.5t-30.5 -72q-40 -99 -59 -182q34 -106 114 -240q3 -6 8.5 -14t9 -14t3.5 -9q0 -14 -10 -14q-5 0 -15 10q-9 16 -24 42t-27 47.5t-22 41.5q-28 58 -52 113q-33 -88 -70.5 -149t-95.5 -93 q-20 -14 -55 -14q-17 0 -37 4q-92 16 -137 88t-45 176zM78 309q0 -8 1 -25.5t1 -25.5q0 -100 44.5 -166t145.5 -72q49 12 78.5 44t59.5 88q20 39 59 141q-25 56 -76.5 156.5t-62.5 123.5q-25 46 -88 144q-54 -61 -86 -111q-76 -122 -76 -297zM119 1087q0 -45 22 -116 q10 -26 24.5 -55t25.5 -49.5t29.5 -53t27.5 -49.5q11 20 46.5 58.5t43.5 49.5q25 36 42 93.5t17 113.5t-19.5 103.5t-53.5 70.5q-32 7 -54 7q-67 0 -109 -50t-42 -123z" />
<glyph unicode="'" horiz-adv-x="141" d="M53 1008q2 18 2 57q0 25 -1 71.5t-1 69.5q0 47 2 70q0 14 17 14q16 0 16 -16q-2 -18 -2 -57q0 -24 1 -71t1 -69q0 -46 -2 -71q-3 -9 -16 -9q-14 0 -17 11z" />
<glyph unicode="(" horiz-adv-x="276" d="M25 631q0 186 59 354q42 114 135 293q3 8 17 8q6 0 11 -4t5 -8q-96 -183 -144.5 -339.5t-48.5 -318.5q0 -341 138 -536q35 -56 49 -70q2 -2 2 -8q0 -3 -5.5 -6.5t-11.5 -3.5q-8 0 -16 8q-10 10 -49 74q-6 9 -23.5 36t-25.5 40.5t-20 35.5t-19 41q-7 15 -10 44t-5 36 q-38 180 -38 324z" />
<glyph unicode=")" horiz-adv-x="231" d="M25 0q147 291 147 616q0 138 -29 269q-1 6 -9.5 43.5t-15 67t-18.5 74t-22.5 77t-24.5 62.5t-28 44q0 13 12 13t18 -6q54 -52 117 -353q5 -19 6 -20q29 -128 29 -271q0 -313 -152 -622q-6 -6 -18 -6t-12 12z" />
<glyph unicode="*" horiz-adv-x="417" d="M51 1036q0 7 6 13q71 34 123 67l-117 64q-6 6 -6 14q0 6 6 12t11 6q6 0 31 -15.5t55 -36.5t37 -25q0 26 -1 75.5t-1 67.5q4 12 14 12q6 0 10 -3.5t4 -6.5q0 -20 1 -39.5t1 -42.5q0 -14 -1 -32.5t-1 -24.5l117 67q20 -3 20 -18q0 -6 -6 -12q-63 -27 -125 -62 q16 -10 63 -37t62 -37q4 -4 4 -12q0 -12 -12 -12q-8 0 -24.5 9t-33.5 20.5t-20 13.5l-45 26v-129q-5 -14 -16 -14q-19 0 -19 12q0 11 3.5 35.5t3.5 87.5v15q-114 -70 -129 -70t-15 12z" />
<glyph unicode="+" horiz-adv-x="339" d="M25 643q0 11 12 14q2 0 42.5 -2t70.5 -2q0 22 2 65.5t2 61.5q0 4 5.5 8.5t10.5 4.5q10 0 16 -11q0 -18 -1 -61t-1 -68h13q77 0 102 2q7 0 11.5 -4t4.5 -8q0 -2 -4 -7t-8 -5q-37 -4 -100 -4h-19v-11q0 -77 -2 -122q-4 -11 -14 -11q-5 0 -10.5 3t-5.5 6q0 21 -1 63t-1 59 v13q-78 4 -113 4q-12 0 -12 12z" />
<glyph unicode="," horiz-adv-x="188" d="M29 -68q0 16 6.5 42.5t18 63t14.5 48.5q13 47 28.5 131t28.5 117q6 14 20 14q7 0 11 -5.5t4 -10.5q-19 -52 -29 -119q-4 -16 -13.5 -59t-13.5 -59.5t-12 -47t-17 -54.5t-20 -50l-4 -11q-4 -11 -8 -12q-14 0 -14 12z" />
<glyph unicode="-" horiz-adv-x="284" d="M12 639q0 16 6 16q20 0 39.5 1t42.5 1q22 0 35 -1t16 -1t8 -0.5t13.5 -1t30.5 -0.5h59q10 0 10 -16q0 -8 -8 -16q-18 0 -39 2t-45 2h-65q-48 0 -95 2q-8 3 -8 12z" />
<glyph unicode="." horiz-adv-x="149" d="M53 16q0 23 21 23q9 0 15.5 -7.5t6.5 -15.5t-6.5 -15t-13.5 -7q-10 0 -16.5 7t-6.5 15z" />
<glyph unicode="/" horiz-adv-x="430" d="M25 8q44 206 98 395q11 37 38.5 116t39.5 120q16 56 55.5 223t69.5 254q38 112 61 158q17 0 19 -10q0 -21 -7 -46t-21 -60t-18 -46l-65 -229q-13 -44 -31 -126.5t-28 -119.5q-20 -69 -61.5 -194t-71 -228.5t-44.5 -198.5q-2 -3 -3 -9t-5 -8.5t-14 -2.5q-1 0 -3.5 1t-4 2 t-3 3.5t-1.5 5.5z" />
<glyph unicode="0" horiz-adv-x="495" d="M25 659q0 244 59 433q11 35 18 53.5t22 50t30 47.5t39 29.5t53 13.5q146 0 190 -280q35 -228 35 -357q0 -201 -43 -389q-7 -33 -12 -54t-16 -57.5t-24 -60.5t-31 -49.5t-42 -38t-53 -12.5q-30 0 -55 13t-43 31t-33 48.5t-24 54.5t-17.5 61t-12 55.5t-8.5 49.5 q-32 201 -32 358zM59 639q0 -211 21 -330q53 -287 162 -299q38 5 67.5 34t47.5 77t26.5 81t17.5 79q33 168 33 354q0 230 -33 385q-9 40 -16.5 66t-22 63.5t-36.5 64t-50 41.5q-12 5 -36 5q-1 0 -5.5 -1.5t-10.5 -3t-9 -2.5q-29 -25 -50.5 -56.5t-36 -71t-21.5 -68.5 t-17 -76q-31 -152 -31 -342z" />
<glyph unicode="1" horiz-adv-x="256" d="M25 915q0 28 55.5 175.5t77.5 189.5q8 8 18 8q14 0 17 -8q3 -46 4 -98.5t1 -116t1 -98.5q0 -14 2 -43t2 -45q0 -49 -4 -184.5t-4 -239.5q0 -294 -9 -453q-3 -10 -16 -10q-16 0 -16 12q10 152 10 479q0 50 1 216t1 313q0 128 -2 196q-33 -75 -101 -276q-7 -27 -22 -27 q-16 0 -16 10z" />
<glyph unicode="2" horiz-adv-x="391" d="M25 8q0 23 19 118t34 110q26 84 87 213t102.5 231.5t41.5 169.5q0 23 1 80t1 82q0 39 -1.5 67.5t-9 66t-20.5 61t-38 40.5t-60 17q-40 0 -66.5 -18.5t-38 -52.5t-15 -64.5t-3.5 -71.5q0 -46 -2.5 -62t-11.5 -16q-16 0 -16 12q0 15 -2 44t-2 42q0 37 10 60 q0 62 41.5 105.5t109.5 43.5q43 0 79.5 -23.5t51.5 -60.5q29 -74 29 -186q0 -27 -2 -86.5t-2 -81.5q0 -64 -27.5 -140.5t-76 -169.5t-56.5 -112q-72 -166 -125 -399q33 0 100 2t101 2q11 0 23 -1t26 -2.5t23 -2.5q5 -1 9.5 -7t4.5 -8q0 -5 -18 -12q-38 6 -80 6 q-35 0 -105 -4t-104 -4q-1 0 -3.5 1t-4 2t-3 3.5t-1.5 5.5z" />
<glyph unicode="3" horiz-adv-x="419" d="M25 1118q0 67 32 109q22 26 62.5 41.5t77.5 15.5q73 0 119 -46.5t46 -127.5q0 -6 2.5 -16.5t2.5 -16.5q0 -1 -0.5 -9t-1 -20t-0.5 -24q0 -39 -0.5 -59t-3.5 -54.5t-10.5 -56t-20 -47t-33.5 -43.5t-49 -31q40 -5 67 -24.5t39 -52t16.5 -63.5t4.5 -73q-1 -271 -6 -347 t-21 -105q-21 -40 -57 -60t-78 -20q-41 0 -82 19t-68 52q-34 39 -34 127q0 32 6 93t6 83q0 13 14 13t17 -10q0 -25 -4.5 -80.5t-4.5 -83.5q0 -66 21 -115q30 -68 121 -68q80 0 112 54q19 43 19 92q0 58 8 82q0 59 -2 136.5t-2 113.5q0 48 -1.5 74t-10.5 58t-26.5 47.5 t-50 26.5t-81.5 11q-9 0 -16 4.5t-7 9.5q0 4 6 10t15 6q29 0 49 5q36 11 51 28q37 33 49.5 77t16.5 110q0 4 -2 34t-2 41q0 27 6 37q-2 91 -33 135.5t-104 44.5q-80 0 -109 -36q-33 -41 -33 -105q0 -17 3 -48t3 -46q-3 -8 -16 -8t-16 6q-6 99 -6 100z" />
<glyph unicode="4" horiz-adv-x="421" d="M10 516q0 28 17.5 82.5t43.5 120.5t33 90q11 35 28 92t23.5 77.5t20 60.5t26.5 68.5t33.5 72.5t49.5 100q7 12 18 12q13 0 16 -10q15 -146 15 -350q0 -92 -2 -156t-6.5 -136.5t-6.5 -104.5q7 0 25 1t27 1q14 -3 14 -13q0 -4 -3.5 -9t-10.5 -5q-9 0 -26.5 -2t-25.5 -2 q-3 -95 -6.5 -161t-5.5 -92.5t-2 -39.5q0 -25 8 -205q-3 -10 -16 -10q-12 0 -16 8q-1 31 -3 60t-2 36q0 5 1.5 35.5t1.5 75.5q0 19 1 57t1 56l6 180q-90 -2 -262 -2q-1 0 -4 1t-5 2t-4 3.5t-2 5.5zM45 532q116 0 242 3q12 262 12 403q0 189 -6 285q-74 -152 -105.5 -236 t-89.5 -276q-1 -5 -5 -14.5t-5 -14.5q-4 -14 -17.5 -67t-25.5 -83z" />
<glyph unicode="5" horiz-adv-x="454" d="M45 436q0 10 14 10q13 0 17 -8q4 -114 4 -153q0 -9 -1 -34.5t-1 -39.5q0 -84 37.5 -135t91.5 -51q52 0 76 18.5t49 69.5q47 94 47 305q0 40 1 55.5t1 42.5q0 46 -2.5 83t-12.5 82.5t-26.5 76.5t-47.5 52t-73 21q-30 0 -58.5 -15.5t-49.5 -31.5t-33 -16t-15 6 q-12 133 -12 445q0 35 -2 53q0 12 21 12q39 -8 118 -8q40 0 91 1t108 1q9 -1 16 -6t7 -8q0 -5 -7.5 -11t-15.5 -6q-97 0 -148.5 -1t-62.5 -1q-65 0 -92 4q2 -14 2 -39q0 -274 6 -403q4 3 16 11t14.5 10t12 8t13 7.5t11.5 5.5t13 5t12.5 3t15 2.5t15.5 0.5q64 0 109.5 -44 t63.5 -101t18 -117q0 -5 0.5 -9.5t0.5 -15t0.5 -56.5t0.5 -122q0 -200 -43 -286q-31 -62 -62.5 -88.5t-91.5 -26.5q-55 0 -85 24t-58 82q-21 41 -21 101q0 12 1 33.5t1 33.5z" />
<glyph unicode="6" horiz-adv-x="450" d="M53 1038q0 93 29 158q20 44 63 69t97 25q87 0 131 -53q33 -39 33 -211q0 -33 -17 -33q-14 0 -14 11q0 5 -1 42t-2 61t-7 54.5t-15 46.5q-32 54 -104 54q-94 0 -133 -70q-25 -54 -25 -168q0 -3 2 -92t2 -244q26 44 70 72t94 28t88 -28q53 -40 53 -166q0 -20 1 -90t1 -90 t-1 -59t-1 -58q0 -39 -1.5 -67.5t-6 -68.5t-15 -68t-27 -54t-44 -39.5t-63.5 -13.5q-27 0 -54 6q-36 7 -62.5 44.5t-37 75.5t-14.5 76q-4 37 -4 109v72q0 80 -3.5 239.5t-3.5 239.5q0 23 -4 91t-4 99zM92 610q0 -227 8 -352q2 -38 3.5 -58.5t7.5 -54.5t16 -54.5t29.5 -42.5 t46.5 -34q3 0 11 -1t11 -1q32 0 56.5 11t39 32.5t24 44.5t13.5 56t5.5 57.5t1.5 58.5v320q-2 36 -6 59.5t-15.5 51.5t-35.5 42.5t-60 14.5q-60 0 -100.5 -47t-55.5 -103z" />
<glyph unicode="7" horiz-adv-x="399" d="M10 2q0 21 7.5 46.5t21.5 59.5t18 46l66 231q12 41 30 122.5t29 121.5q18 62 59.5 191.5t69.5 233t43 195.5q-64 6 -131 6q-121 0 -180 -6q-7 1 -12.5 7t-5.5 10q0 5 10 8q61 6 182 6q105 0 158 -4q14 -7 14 -12q-6 -25 -26.5 -121.5t-35.5 -159.5t-32 -121 q-11 -37 -38.5 -115.5t-39.5 -119.5q-12 -42 -31 -124.5t-30 -121.5q-12 -45 -74 -238q-2 -6 -8.5 -29.5t-11 -39t-11 -35t-12 -32t-10.5 -15.5q-16 0 -19 10z" />
<glyph unicode="8" horiz-adv-x="440" d="M45 225q0 13 6 211q0 117 31 152q5 12 21 28t55.5 48t50.5 41q-9 9 -26.5 23t-22.5 20q-113 98 -113 219q0 124 -2 151q0 82 52.5 127t125.5 45q66 0 114 -40t48 -111q10 -18 10 -47q0 -24 -4 -70q0 -180 -67 -258q-6 -8 -15 -17t-16 -15.5t-19 -17t-18 -16.5 q121 -107 125 -159q14 -63 14 -191q0 -204 -43 -280q-45 -80 -127 -80q-55 0 -102 37t-64 96q-14 49 -14 104zM76 971q0 -59 31.5 -116.5t80.5 -98.5q3 -2 10.5 -8.5l15 -13t15.5 -11.5q69 55 88 86q32 65 40 130.5t8 180.5q-7 15 -13 42t-17.5 47.5t-39.5 37.5 q-44 21 -72 21q-59 0 -103 -43t-44 -105v-149zM82 221q0 -47 4 -74q9 -57 48.5 -92t88.5 -35q32 0 55.5 10t40.5 42q41 75 41 301q0 128 -12 164q-16 58 -117 147q-5 -4 -33 -26.5t-39.5 -32.5t-29.5 -29.5t-29 -38.5q-14 -23 -14 -59q0 -24 -2 -145.5t-2 -131.5z" />
<glyph unicode="9" horiz-adv-x="466" d="M41 244v49q0 12 16 12q14 0 17 -10v-62q0 -104 28 -153q36 -66 125 -66q69 0 111 60q17 25 26.5 60t11 59.5t2 71t1.5 61.5q0 12 1 37t1 38q0 127 -10 254q-14 -44 -56 -68t-92 -24q-76 0 -119 43q-59 54 -59 230q0 23 3 70t3 73q0 8 -1 27.5t-1 29.5q0 13 5 36t5 32 q0 89 43.5 137.5t106.5 48.5q46 0 89 -28t71 -82q32 -56 32 -164q0 -24 -2 -69.5t-2 -65.5q0 -68 8.5 -201t8.5 -199v-141q0 -222 -45 -285q-24 -35 -64 -54t-84 -19q-50 0 -90.5 24.5t-60.5 69.5q-29 66 -29 168zM80 840q0 -52 4.5 -90.5t18 -78t41.5 -60.5t71 -21 q40 0 96 26q15 16 23.5 32t17 38t13.5 33q0 87 0.5 144.5t1 83.5t0.5 36q0 89 -17.5 154t-70.5 114q-47 15 -70 15q-49 0 -80 -31q-26 -39 -32.5 -67t-6.5 -70q0 -4 -6 -121q0 -17 -2 -63.5t-2 -73.5z" />
<glyph unicode=":" horiz-adv-x="151" d="M53 12q0 11 7.5 17t15.5 6q22 0 22 -21q0 -9 -6.5 -15.5t-15.5 -6.5q-7 0 -15 6.5t-8 13.5zM53 510q0 7 7.5 16t13.5 9q11 0 16.5 -8t5.5 -17q0 -23 -20 -23q-8 0 -15.5 7.5t-7.5 15.5z" />
<glyph unicode=";" horiz-adv-x="198" d="M29 -68q0 16 6.5 42.5t18 63t14.5 48.5q13 47 28.5 131t28.5 117q6 14 20 14q7 0 11 -5.5t4 -10.5q-19 -52 -29 -119q-4 -16 -13.5 -59t-13.5 -59.5t-12 -47t-17 -54.5t-20 -50l-4 -11q-4 -11 -8 -12q-14 0 -14 12zM119 510q0 8 7 16.5t13 8.5q11 0 17 -8t6 -17 q0 -23 -21 -23q-7 0 -14.5 7.5t-7.5 15.5z" />
<glyph unicode="=" horiz-adv-x="280" d="M10 586q0 8 8 16q19 0 39.5 -2t44.5 -2q113 0 160 -2q8 -3 8 -12q0 -17 -6 -17q-46 0 -126 1t-118 1q-10 0 -10 17zM10 692q0 10 8 13q47 2 95 2h65q24 0 45 2t39 2q8 -8 8 -17q0 -16 -10 -16q-54 0 -77.5 -0.5t-25 -1t-15 -1t-44.5 -1.5q-23 0 -42.5 1t-39.5 1 q-6 0 -6 16z" />
<glyph unicode="?" horiz-adv-x="411" d="M45 365q0 99 12 151q7 40 30.5 76.5t45.5 56.5t64.5 53t60.5 50q54 46 64 94q0 26 5 85t5 93q0 131 -33 201q-22 43 -94 43q-70 0 -101 -51q-22 -35 -22 -101q0 -16 2 -45t2 -45q-3 -8 -16 -8q-12 0 -15 6q-6 46 -6 88q0 59 23 109q36 67 129 67q90 0 131 -59 q28 -43 28 -217q0 -104 -6 -127q0 -46 -24.5 -87.5t-54.5 -67.5t-75 -62t-67 -58q-57 -57 -57 -235q0 -103 29 -154.5t100 -66.5q34 4 61 12q45 34 57.5 86.5t12.5 136.5q0 107 -12 168q0 12 16 12q13 0 16 -10q11 -64 11 -106q0 -5 -7 -121q-4 -101 -38 -144 q-40 -55 -109 -55q-73 0 -125 55q-43 53 -43 177zM184 18q0 23 21 23q9 0 15.5 -7.5t6.5 -15.5t-6.5 -15t-13.5 -7q-10 0 -16.5 7t-6.5 15z" />
<glyph unicode="@" horiz-adv-x="950" d="M25 596q0 15 1 46.5t1 49.5q2 60 3 86.5t4.5 82.5t9 86t15.5 77.5t25 77.5t36 65.5t50.5 63t65.5 49.5q103 63 258 63q80 0 145 -25t129 -85q68 -65 111 -170q22 -56 33 -149.5t12.5 -155t1.5 -162.5q0 -90 -8 -213q-4 -74 -31 -145q-36 -97 -115 -97q-51 0 -82 35 t-51 103q-4 12 -8 36l-21 -45q-18 -33 -25.5 -43t-29.5 -32q-29 -31 -113 -31q-86 0 -128 62.5t-56 168.5q-22 154 -22 275q0 76 10 138.5t33.5 119.5t68.5 89t109 32q93 0 140 -30t54 -124q12 -159 13 -172q16 216 28 311q3 8 15 8q11 0 14 -10q-25 -227 -43 -463 q0 -23 -6.5 -64.5t-7.5 -51.5q-2 -39 -2 -117q0 -67 30.5 -117.5t73.5 -50.5q123 0 123 281q0 38 1 110t1 109q0 326 -57 422q-132 225 -347 225q-103 0 -177 -32.5t-146 -108.5q-61 -65 -90 -297q-15 -141 -15 -367q0 -95 29.5 -240.5t89.5 -220.5q41 -50 125.5 -86.5 t179.5 -36.5q60 0 120.5 17t98.5 37.5t66.5 37.5t32.5 17q12 0 12 -10q0 -7 -6 -13q-140 -116 -334 -116q-220 0 -328 147q-62 85 -91 245t-29 308zM264 672q0 -113 6 -154q0 -3 5.5 -56.5t12.5 -91.5t17 -61q26 -63 58 -92t94 -29q56 0 95 41.5t57 110t25 132t7 132.5 t-11 174.5t-12 118.5q-6 68 -41.5 97.5t-99.5 29.5q-63 0 -107 -28.5t-66 -80.5t-31 -110t-9 -133z" />
<glyph unicode="A" d="M10 -2q7 27 13 68q63 300 111 594t59 350q6 29 13.5 85t16.5 99.5t25 79.5q3 6 12 12t14 6q8 0 13.5 -18t9.5 -48.5t4 -31.5l43 -338q10 -86 53 -407q4 -27 17.5 -89.5t17.5 -91.5q4 -27 24.5 -121.5t22.5 -146.5q0 -8 -12 -8q-6 0 -12 6q-3 19 -18.5 111t-26.5 141 q-3 10 -24.5 132t-25.5 138q-46 0 -111 -4t-112 -4l-84 -436q-16 -72 -20 -82q-6 -6 -13 -6q-10 0 -10 10zM139 541q37 0 108 3t109 3q0 27 -5 58t-5 59q-26 145 -72 534q-6 48 -6 62q-7 -17 -14 -47t-16 -78t-13 -66q-17 -83 -40.5 -249.5t-39.5 -248.5z" />
<glyph unicode="B" horiz-adv-x="430" d="M53 1264q0 14 10 14q106 8 134 8q59 0 88 -20q41 -30 67 -104.5t29 -162.5v-34q0 -28 -4 -82q-17 -113 -70 -152q-44 -35 -96 -41q87 -22 127.5 -85t40.5 -183q0 -26 3 -106t3 -91v-6q0 -36 -5 -65.5t-12 -51.5t-21.5 -39t-26.5 -28t-35.5 -18.5t-40 -11.5t-48 -6 t-52 -2.5t-58.5 -0.5q-4 0 -7 1l-3 1q-5 0 -9 4t-4 8q0 25 4 72.5t5 64.5v43q0 97 -13 359q-2 63 -2 190v267q0 172 -4 258zM88 551q1 -37 4.5 -156t3.5 -184v-66q0 -21 -1 -60t-1 -60q76 0 120.5 6t79.5 26.5t48.5 59t13.5 102.5q0 73 -0.5 116t-2 73.5t-2 38.5t-4.5 31.5 t-5 31.5q-8 54 -27.5 87t-69.5 56t-134 27h-23v-129zM88 707h49q100 0 142 32q40 41 56.5 89t16.5 163v13q-3 80 -29.5 150t-68.5 103q-14 9 -59 9q-57 0 -107 -4q2 -61 2 -185q0 -60 -1 -184t-1 -186z" />
<glyph unicode="C" horiz-adv-x="440" d="M53 254q0 85 2 250.5t2 251.5q0 14 -1 87.5t-1 119.5q0 173 19 231q13 44 51.5 67t87.5 23q95 0 154 -59q34 -34 34 -125q0 -14 -1 -39.5t-1 -34.5q0 -4 -6 -8t-12 -4q-12 0 -12 8q0 13 1 37t1 35q0 69 -27 108q-60 51 -127 51q-72 0 -119 -59q-8 -29 -10 -128.5 t-2 -481.5q0 -53 -3 -162t-3 -164v-53q0 -78 22 -119q18 -27 60 -47.5t82 -20.5q39 0 67.5 37.5t41 94t17.5 100.5t5 78q0 45 2 67.5t5.5 27.5t10.5 5q6 0 7 -4t3 -25q0 -69 -2 -107.5t-10.5 -98t-30 -104.5t-57.5 -79q-20 -20 -57 -20q-42 0 -90 23t-70 50q-29 45 -29 87 q0 15 -2 50t-2 54z" />
<glyph unicode="D" horiz-adv-x="487" d="M53 6q8 328 8 733q0 341 -4 529q0 16 39 16q7 0 31 -1t41 -1q84 0 127 -39q19 -16 33.5 -34t25.5 -42.5t18 -40.5t13.5 -48.5t8.5 -45t7.5 -50.5t6.5 -46q26 -181 26 -358q0 -82 -6 -168q-1 -12 -3 -46t-3.5 -63t-1.5 -47q0 -101 -84 -179.5t-180 -78.5q-12 0 -40 2 t-42 2h-15q-6 0 -6 6zM80 27h22q10 0 26 -1t24 -1q85 0 161.5 75t79.5 158q10 322 10 354q0 82 -24 322q-6 51 -11.5 85t-18 80t-33 77.5t-48.5 48.5q-45 28 -118 28h-66q6 -267 6 -534q0 -406 -10 -692z" />
<glyph unicode="E" horiz-adv-x="458" d="M53 10q1 49 7 327.5t6 424.5q0 284 -13 500q2 7 8.5 13.5t14.5 6.5q36 0 98 -1t94 -1q36 0 85.5 1t66.5 1q14 0 14 -10q0 -15 -16 -15q-8 0 -64.5 -1t-95.5 -1q-19 0 -78 -1t-98 -1q12 -187 12 -469v-135q175 0 316 10q10 0 10 -8q0 -7 -6.5 -12.5t-16.5 -5.5 q-111 -10 -303 -10q0 -9 -1 -27t-1 -27q-9 -277 -12 -538q50 -1 85 -2t49.5 -1.5t21.5 -0.5q88 0 180 6q14 0 14 -15q0 -5 -4.5 -10.5t-11.5 -5.5q-82 -6 -164 -6q-100 0 -191 6q-6 0 -6 8z" />
<glyph unicode="F" horiz-adv-x="423" d="M53 0q0 129 1 274.5t2.5 323.5t2.5 276q0 82 -3 210.5t-3 181.5q2 7 8.5 13.5t14.5 6.5q113 -4 332 -4q6 -6 6 -10q0 -12 -11 -17h-161q-111 0 -162 2q0 -59 3.5 -171l4.5 -144q0 -48 2 -133.5t2 -126.5q10 0 26 -1t23 -1q18 0 51.5 1t49.5 1q53 0 82 -2q12 -4 12 -8 q0 -13 -12 -15q-4 -4 -95 -4q-119 0 -139 4q-1 -85 -5.5 -304t-4.5 -337q0 -24 -19 -24q-8 0 -8 8z" />
<glyph unicode="G" horiz-adv-x="456" d="M53 272q0 48 2 126.5t2 95.5q0 56 2 180t2 186q0 119 -4 176q-4 62 -4 101q0 51 23 84q22 27 78.5 50t101.5 23q23 0 43 -8q74 -40 95.5 -106.5t21.5 -180.5v-20q-8 -8 -13 -8q-13 0 -18 10q0 37 -1.5 64.5t-5 63.5t-12.5 61.5t-22.5 48.5t-36 35t-51.5 12q-46 0 -96 -23 t-66 -61q-14 -32 -14 -72q0 -4 0.5 -23t1.5 -70t2 -139t1.5 -266.5t0.5 -416.5q0 -79 12 -123q45 -56 123 -56q70 0 125 43q8 10 13 40t7 94t2.5 113.5t0.5 152.5q-101 0 -136 4q-8 0 -8 10q0 6 4.5 12.5t10.5 6.5q34 -3 89.5 -4t80.5 -3q10 -5 10 -14t-8 -12h-13 q0 -5 1 -52t1 -81q0 -251 -34 -283q-48 -51 -138 -51q-55 0 -100 25t-59 73q-17 55 -17 182z" />
<glyph unicode="H" horiz-adv-x="487" d="M53 936q0 106 17 342q3 8 16 8q12 0 14 -10q-12 -242 -12 -371q0 -54 1.5 -95t3.5 -75.5t3 -48.5q107 0 299 -4q-2 115 -6 264t-4 209q0 80 2 121q4 8 16 8q14 0 17 -10q0 -14 -1 -45t-1 -47q0 -61 4 -184.5t4 -186.5q0 -39 4 -346.5t4 -456.5q-5 -10 -16 -10 q-17 0 -17 12q0 106 -2 320t-2 323q-98 6 -297 6l11 -210q-1 -67 -9 -216t-8 -227q-2 -10 -16 -10q-17 0 -17 12q0 73 7.5 235t7.5 257q0 61 -9.5 177t-11.5 157q-2 33 -2 102z" />
<glyph unicode="I" horiz-adv-x="153" d="M53 1284q0 10 15 10q14 0 18 -8q0 -396 8 -711q1 -39 2.5 -107.5t2.5 -125.5t1 -109q0 -116 -6 -233q-3 -8 -18 -8q-17 0 -17 10q4 80 4 246q0 54 -2 161.5t-2 163.5q0 119 -3 356t-3 355z" />
<glyph unicode="J" horiz-adv-x="432" d="M10 221q0 43 4 117q3 6 17 6q13 0 16 -8q0 -16 -3 -53t-3 -56q0 -90 33 -149q17 -28 48 -44t66 -16q67 0 105 50q45 56 45 143q0 56 4 173t4 175q0 69 -6 303q-3 63 -4.5 206.5t-5.5 219.5q0 4 5.5 8t10.5 4q11 0 16 -10q11 -194 11 -426q0 -9 3 -110.5t3 -145.5v-51 q0 -186 -12 -350q0 -80 -46.5 -147.5t-119.5 -67.5q-38 0 -77.5 14.5t-62.5 38.5q-51 53 -51 176z" />
<glyph unicode="K" horiz-adv-x="405" d="M53 1278q0 12 15 12q11 0 14 -10q0 -112 4 -348t4 -348q0 -53 -2 -158t-2 -158q7 22 53 170q15 46 29 93.5t28 104t23 92.5t25 106t22 96q47 209 82 350q4 8 17 8t16 -10q-14 -55 -40.5 -175t-39.5 -175q-41 -178 -90 -357q43 -122 98 -360q2 -6 7 -28.5l7 -31.5t7 -28.5 t8.5 -31.5t9 -28t11.5 -30t12 -27q0 -12 -17 -12q-11 0 -14 8q-11 17 -19.5 47t-19.5 77.5t-22 82.5q-50 207 -82 311l-27 -84q-53 -169 -88 -237q0 -27 2 -59t2 -42q0 -34 4 -96q-2 -10 -16 -10t-17 8q-2 63 -2 195q0 64 2 194.5t2 196.5q0 112 -3 346t-3 346z" />
<glyph unicode="L" horiz-adv-x="421" d="M53 522q0 38 2 118t4.5 247t3.5 403q0 4 6 8.5t11 4.5q10 0 16 -11q0 -136 -5 -421.5t-5 -421.5q0 -71 5 -209t5 -211q39 -9 101 -9q33 0 99 6.5t99 6.5q17 -3 17 -15q0 -4 -4.5 -9t-12.5 -5q-39 0 -109.5 -7t-107.5 -7q-39 0 -104 10q-11 0 -11 10q0 130 -8 396 q-2 29 -2 116z" />
<glyph unicode="M" horiz-adv-x="745" d="M53 1149q0 90 2 135q4 8 17 8t16 -10q20 -91 73 -248t68 -209q17 -58 32 -130.5t30 -161t24 -132.5q8 -45 31 -137.5t31 -142.5q33 217 134 617.5t130 541.5q3 6 16 6q14 0 17 -8q12 -221 14 -332q4 -184 4 -571v-367q-2 -10 -16 -10q-17 0 -17 12q0 80 -1 241.5 t-1 242.5q0 285 -10 643q-140 -529 -254 -1131q-3 -10 -16 -10q-15 0 -17 12q-8 51 -79 391q-6 31 -30.5 160.5t-41.5 198.5q-15 60 -34.5 128t-51 171t-37.5 121v-48q0 -44 2 -133t2 -133v-190q0 -113 -1 -335.5t-1 -332.5q-2 -10 -16 -10q-17 0 -17 12q0 109 1 330.5 t1 333.5q-1 105 -2 211.5t-1.5 165t-0.5 100.5z" />
<glyph unicode="N" horiz-adv-x="497" d="M53 801q0 59 6 180.5t7 169.5q0 16 2 49t2 51q0 8 -0.5 14t-0.5 8.5t-0.5 5t-0.5 3.5q3 8 16 8q11 0 18 -12q17 -67 55 -185.5t52 -166.5q92 -332 158 -662q24 -113 39 -160q0 51 -3.5 290t-3.5 368q0 307 15 512q3 6 14 6q13 0 16 -8q-8 -151 -8 -336q0 -85 2 -263.5 t2 -262.5q0 -69 -1 -205t-1 -203q0 -8 -16 -8q-9 0 -16 20q-54 138 -74 248q-86 429 -156 662q-15 48 -44 137t-36 110v-22q-6 -333 -6 -350q0 -134 3 -338.5t3 -290.5q0 -111 -2 -166q-2 -10 -16 -10q-15 0 -15 12q5 298 5 356q0 111 -7.5 248.5t-7.5 190.5z" />
<glyph unicode="O" horiz-adv-x="497" d="M25 653q0 184 34 357q8 45 21.5 88.5t36.5 90.5t58.5 76t78.5 29q28 0 52 -15t39 -33.5t30.5 -53t21.5 -54t17 -55.5q59 -191 59 -419q0 -142 -31 -365q-5 -35 -10 -59.5t-15 -65t-24 -69t-33.5 -57t-47.5 -43.5t-62 -15q-25 0 -47 11t-37.5 24.5t-30.5 41t-23.5 45 t-19 52.5t-13.5 48t-11 46q-43 191 -43 395zM59 649q0 -196 41 -389q10 -42 16.5 -66.5t21 -62.5t36 -64.5t49.5 -41.5q14 -7 39 -7q1 0 5.5 2t11 4t10.5 3q55 46 79.5 112t39.5 164q28 173 28 342q0 163 -26 313q-6 31 -12.5 61.5t-21 78t-31 82.5t-40.5 62t-51 30 q-39 -6 -68.5 -34t-47.5 -74t-27 -78.5t-17 -77.5q-35 -181 -35 -359z" />
<glyph unicode="P" horiz-adv-x="419" d="M53 6q13 107 13 258q0 83 -6.5 248t-6.5 248q0 157 10 272q0 63 7 82q0 26 -1 79t-1 79q0 3 1.5 5.5t3.5 3.5t5 2t4 1h16q13 0 38.5 1t39.5 1q55 0 95.5 -14t72.5 -55q51 -61 51 -181q0 -30 -4 -84q-10 -96 -26 -176q-20 -92 -54 -121t-135 -47q-29 -4 -86 -4 q8 -226 8 -332q0 -184 -12 -268q-2 -10 -16 -10q-17 0 -17 12zM86 784q0 -41 2 -87t2 -64q106 0 205 41q18 23 37.5 95.5t19.5 115.5q10 118 10 139q0 35 -1.5 56.5t-8 50t-18.5 48t-35.5 39.5t-56.5 35q-9 0 -29.5 2t-30.5 2q-14 0 -41 -1t-39 -1v-36q0 -71 -8 -217 t-8 -218z" />
<glyph unicode="Q" horiz-adv-x="495" d="M25 618q0 147 30 355q5 35 10 59.5t15.5 65.5t24.5 69.5t33.5 57.5t47.5 44t62 15q28 0 52 -13t41.5 -38.5t30.5 -49.5t24 -61t16 -58t12 -54q47 -203 47 -394q0 -174 -35 -346q-16 -88 -47 -147l72 -107q8 -5 8 -10q0 -6 -6 -10t-12 -4q-12 0 -15 8q-7 7 -17 20t-26 34 t-26 34q-50 -78 -138 -90q-18 2 -34 10t-27 15.5t-22.5 25.5t-16.5 25.5t-14.5 33.5t-11.5 31.5t-11 34.5l-6 27q-61 183 -61 417zM53 635q0 -43 3.5 -90.5t7 -74t12 -82t10.5 -71.5q7 -51 24.5 -111t51 -118t71.5 -70q66 10 117 97q-66 102 -86 153q0 6 5 9.5t10 3.5 q9 0 18 -9q15 -41 70 -120q25 60 36 120q33 186 33 344q0 93 -12.5 210.5t-32.5 189.5q-3 9 -12 41.5t-13.5 48t-15.5 44.5t-21.5 45.5t-26.5 34.5t-34 27q-3 0 -10.5 1.5t-11.5 1.5q-19 -3 -39 -9q-51 -46 -85 -129.5t-34 -150.5q-35 -206 -35 -336z" />
<glyph unicode="R" horiz-adv-x="430" d="M53 6q21 546 21 1262q0 4 2.5 6t6.5 3.5t5 2.5q4 0 26.5 1t39.5 1q159 0 200 -53q31 -40 31 -182q0 -106 -1 -153t-5.5 -115t-15 -95t-30 -59.5t-49 -45t-73.5 -18.5q57 -147 115 -377q4 -14 11.5 -44l12 -48t13.5 -43t18 -45q0 -2 -8.5 -6t-14.5 -4q-2 0 -10 4 q-13 26 -22.5 53.5t-21 75.5t-13.5 55q-61 244 -111 377h-18q-16 -4 -68 -4q2 -49 2 -141q0 -80 -5 -215t-5 -195q0 -10 -16 -10q-17 0 -17 12zM94 582l25 -2l67 8q5 2 7 2t4.5 -1t3.5 -1q31 0 43 4q92 32 102 147q10 66 10 168q0 76 -4 178q-1 6 -3.5 43.5t-9 60 t-22.5 36.5q-32 26 -163 26h-50q0 -78 -2 -229.5t-2 -224.5v-76q0 -23 -3 -69t-3 -70z" />
<glyph unicode="S" horiz-adv-x="438" d="M45 268v15q0 5 5 8.5t11 3.5q10 0 15 -10q0 -12 -1 -37.5t-1 -40.5q0 -99 45 -146q39 -45 86 -45q35 0 66 16.5t48 47.5q41 74 41 215q0 24 -1 69t-1 66q0 66 -28 124t-63.5 93t-90 87t-84.5 91q-43 55 -43 170q0 41 10 154q0 4 -2 9.5t-2 8.5q0 9 4 13q30 106 160 106 q39 0 63.5 -5.5t41.5 -25.5q53 -62 53 -208q0 -20 -1 -61t-1 -58q-3 -8 -17 -8q-16 0 -16 10v76q0 207 -66 251l-57 5q-35 0 -49.5 -4t-40.5 -23q-27 -33 -39 -57q0 -26 -5 -91t-5 -98q0 -71 20 -115q14 -30 40.5 -59.5t55.5 -55.5t58.5 -54t58 -64t45.5 -76q35 -79 35 -190 q0 -25 -2 -76t-2 -78q0 -91 -46 -159t-132 -68q-66 0 -113 47q-24 23 -37 68.5t-14.5 76.5t-1.5 82z" />
<glyph unicode="T" d="M10 1272q0 11 13 14q57 0 223 -5t221 -5q12 -2 12 -10q0 -13 -12 -13q-24 0 -99.5 3.5t-119.5 3.5q0 -55 -4 -158t-4 -156q0 -61 5 -149t12 -203.5t9 -155.5q0 -42 -1 -93.5t-1 -68.5q0 -47 1 -139t1 -133q-2 -10 -16 -10t-17 8q-1 57 -2 102t-1.5 64.5t-0.5 26.5 q0 52 2 79l7 164l-25 443q-4 74 -4 110q0 45 3 135t3 136q-40 0 -105.5 1t-86.5 1q-13 0 -13 8z" />
<glyph unicode="U" horiz-adv-x="505" d="M53 1049v231q0 6 5 11t10 5q11 0 16 -14v-446q0 -51 5 -155.5t5 -156.5v-69q0 -29 -1 -93t-1 -96q0 -173 80 -229q20 -14 66 -14q57 0 93 11.5t54.5 38.5t24.5 59.5t6 84.5q0 37 1 111t1 112q0 300 -12 832q0 10 16 10q10 0 14 -8q15 -353 15 -574q0 -39 1 -127t1 -127 t-1 -116.5t-1 -116.5q0 -141 -54 -178q-27 -18 -74 -30.5t-92 -12.5q-63 0 -90 24q-26 24 -37 43.5t-24 59.5q-21 64 -21 166q0 27 1 79t1 76q0 117 -4 320t-4 289z" />
<glyph unicode="V" horiz-adv-x="542" d="M10 1276q0 12 17 12q8 0 12 -8q39 -185 94 -608.5t105 -636.5q16 47 30.5 98t30 114t24 99.5t26 115.5t22.5 101q92 403 131 705q3 6 16 6q11 0 14 -8q-39 -302 -131 -705q-7 -30 -30 -136.5t-34.5 -154.5t-34.5 -128.5t-48 -145.5q-3 -8 -14 -8q-14 0 -17 6 q-16 49 -29 99t-24 117.5t-16 98.5t-16 118.5t-13 100.5q-74 535 -115 748z" />
<glyph unicode="W" horiz-adv-x="917" d="M10 1280q0 10 17 10q12 0 16 -8q22 -130 81 -549.5t105 -640.5q23 116 44.5 248.5t47 299.5t39.5 251q10 63 38 194t38 199q3 6 17 6q11 0 16 -8q19 -59 32 -129.5t25.5 -177.5t16.5 -135q86 -598 112 -754q60 227 136 676q18 102 83 526q8 8 17 8q13 0 16 -10 q-71 -466 -104 -645q-75 -417 -133 -641q-3 -8 -17 -8q-13 0 -16 6q-42 207 -97.5 615t-86.5 579q-12 -70 -43 -236t-45 -254q-4 -30 -23 -165.5t-28.5 -195t-28.5 -161.5t-39 -180q-3 -8 -17 -8q-10 0 -16 6q-33 99 -53 221t-37 262t-33 224q-37 192 -37 311 q-12 36 -19 80.5t-13 100t-11 83.5z" />
<glyph unicode="X" horiz-adv-x="413" d="M10 1278q0 12 17 12q13 0 16 -10q46 -211 156 -588q19 78 57 213q38 146 115 377q3 6 16 6t16 -8q-20 -59 -54 -181.5t-50 -172.5q-32 -102 -82 -297q4 -15 27.5 -115t54 -208.5t80.5 -258.5q1 -4 7.5 -19t6.5 -22q-3 -10 -16 -10q-17 0 -17 12q-30 69 -52.5 148t-53 203 t-53.5 208q-14 -57 -41 -166t-35.5 -142.5t-24.5 -94t-27 -94t-24 -68.5q-3 -10 -16 -10q-17 0 -17 12q14 37 26.5 77t25 86.5t20 77t20.5 87.5t19 80l55 219q-104 364 -121 432q-2 10 -22.5 93t-28.5 122z" />
<glyph unicode="Y" horiz-adv-x="387" d="M10 1274q0 4 5.5 8t11.5 4q9 0 14 -10q0 -60 27 -156.5t69 -215t53 -156.5q4 13 47.5 154.5t61.5 213.5q12 57 29 113l14 41l2 8q0 10 16 10q12 0 17 -10q0 -13 -5 -29.5t-14 -38.5t-12 -30q-14 -56 -43.5 -156.5t-40.5 -140.5q-2 -7 -9.5 -36t-13.5 -51.5t-15.5 -48.5 t-18.5 -40q0 -66 -2 -201t-2 -203q0 -176 8 -299q-3 -10 -16 -10q-14 0 -17 8q-8 120 -8 293q0 68 2 207t2 209q-28 61 -39 127q-10 34 -40 118.5t-40 128.5q-7 28 -18.5 56.5t-16.5 60.5q0 3 -3 20t-3 25q-2 6 -2 27z" />
<glyph unicode="Z" horiz-adv-x="409" d="M10 1274q0 7 13 10q102 -4 153 -4q35 0 102.5 1t102.5 1q13 0 18 -10q0 -20 -13.5 -61.5t-43 -132t-55.5 -187.5q-11 -41 -29.5 -123t-30.5 -123q-11 -40 -39.5 -117.5t-40.5 -117.5q-14 -51 -92 -387q10 0 57.5 -3.5t73.5 -3.5q48 0 181 9q6 -1 12 -6.5t6 -8.5 q0 -5 -12 -8q-79 -8 -180 -8q-87 0 -158 8q-1 0 -5.5 1.5t-7 3t-2.5 5.5q72 318 95 400q11 37 38.5 115.5t39.5 119.5q10 35 54 211t75 266q4 15 23.5 60.5t21.5 70.5q-111 -6 -174 -6t-170 11q-5 0 -9 5t-4 9z" />
<glyph unicode="[" horiz-adv-x="227" d="M53 16q10 161 10 387q0 145 -4 431q0 77 1 164t1 114q0 56 -4 158q0 12 15 12q25 -2 131 -2q14 -3 14 -12q0 -13 -14 -13q-97 0 -115 2q2 -47 2 -141q0 -47 -1 -140.5t-1 -139.5q6 -474 6 -476q0 -194 -10 -335q56 0 123 -9q10 -2 10 -8q0 -11 -16 -14q-23 3 -67 4t-68 4 q-13 3 -13 14z" />
<glyph unicode="\" horiz-adv-x="428" d="M25 1282q0 3 1.5 5.5t3 3.5t4 2t3.5 1q10 0 14 -2.5t5 -8.5t3 -9q12 -77 21 -120t15 -63.5t22.5 -71t34.5 -112.5l149 -520q19 -55 60.5 -205.5t41.5 -181.5q-3 -10 -18 -10q-10 10 -61 184q-24 83 -65 242t-62 235l-74 254q-69 240 -98 377z" />
<glyph unicode="]" horiz-adv-x="227" d="M10 10q0 15 15 15q51 0 114 -7q-2 47 -2 148q0 47 1 140.5t1 139.5q-4 316 -4 476q0 222 8 335q-22 0 -60.5 -1t-62.5 -1q-10 0 -10 13q0 11 17 14q24 0 67.5 1t67.5 1q12 0 12 -14q-8 -129 -8 -391q0 -287 2 -430q0 -54 -1 -142t-1 -125q0 -64 4 -174q0 -12 -14 -12 q-25 2 -131 2q-15 3 -15 12z" />
<glyph unicode="^" horiz-adv-x="272" d="M25 1124q0 27 34.5 83t59.5 83q8 4 12 4q6 0 14 -4q22 -21 62.5 -85.5t40.5 -84.5q-3 -12 -15 -12q-14 0 -14 16q0 -2 1 -6t1 -6q-51 101 -88 150q-48 -60 -80 -140q0 -12 -14 -12t-14 14z" />
<glyph unicode="_" horiz-adv-x="327" d="M12 16q0 10 8 13q47 2 203 2q25 0 45 2t39 2q8 -8 8 -17q0 -16 -10 -16q-9 0 -205 -4q-23 0 -42.5 1t-39.5 1q-6 0 -6 16z" />
<glyph unicode="`" horiz-adv-x="237" d="M0 1470q0 11 14 11q3 -1 42 -20.5t69 -28.5q41 -14 77 -36t36 -30t-13 -8q-37 8 -131 54t-94 58z" />
<glyph unicode="a" d="M10 -2q7 27 13 68q63 300 111 594t59 350q6 29 13.5 85t16.5 99.5t25 79.5q3 6 12 12t14 6q8 0 13.5 -18t9.5 -48.5t4 -31.5l43 -338q10 -86 53 -407q4 -27 17.5 -89.5t17.5 -91.5q4 -27 24.5 -121.5t22.5 -146.5q0 -8 -12 -8q-6 0 -12 6q-3 19 -18.5 111t-26.5 141 q-3 10 -24.5 132t-25.5 138q-46 0 -111 -4t-112 -4l-84 -436q-16 -72 -20 -82q-6 -6 -13 -6q-10 0 -10 10zM139 541q37 0 108 3t109 3q0 27 -5 58t-5 59q-26 145 -72 534q-6 48 -6 62q-7 -17 -14 -47t-16 -78t-13 -66q-17 -83 -40.5 -249.5t-39.5 -248.5z" />
<glyph unicode="b" horiz-adv-x="430" d="M53 1264q0 14 10 14q106 8 134 8q59 0 88 -20q41 -30 67 -104.5t29 -162.5v-34q0 -28 -4 -82q-17 -113 -70 -152q-44 -35 -96 -41q87 -22 127.5 -85t40.5 -183q0 -26 3 -106t3 -91v-6q0 -36 -5 -65.5t-12 -51.5t-21.5 -39t-26.5 -28t-35.5 -18.5t-40 -11.5t-48 -6 t-52 -2.5t-58.5 -0.5q-4 0 -7 1l-3 1q-5 0 -9 4t-4 8q0 25 4 72.5t5 64.5v43q0 97 -13 359q-2 63 -2 190v267q0 172 -4 258zM88 551q1 -37 4.5 -156t3.5 -184v-66q0 -21 -1 -60t-1 -60q76 0 120.5 6t79.5 26.5t48.5 59t13.5 102.5q0 73 -0.5 116t-2 73.5t-2 38.5t-4.5 31.5 t-5 31.5q-8 54 -27.5 87t-69.5 56t-134 27h-23v-129zM88 707h49q100 0 142 32q40 41 56.5 89t16.5 163v13q-3 80 -29.5 150t-68.5 103q-14 9 -59 9q-57 0 -107 -4q2 -61 2 -185q0 -60 -1 -184t-1 -186z" />
<glyph unicode="c" horiz-adv-x="440" d="M53 254q0 85 2 250.5t2 251.5q0 14 -1 87.5t-1 119.5q0 173 19 231q13 44 51.5 67t87.5 23q95 0 154 -59q34 -34 34 -125q0 -14 -1 -39.5t-1 -34.5q0 -4 -6 -8t-12 -4q-12 0 -12 8q0 13 1 37t1 35q0 69 -27 108q-60 51 -127 51q-72 0 -119 -59q-8 -29 -10 -128.5 t-2 -481.5q0 -53 -3 -162t-3 -164v-53q0 -78 22 -119q18 -27 60 -47.5t82 -20.5q39 0 67.5 37.5t41 94t17.5 100.5t5 78q0 45 2 67.5t5.5 27.5t10.5 5q6 0 7 -4t3 -25q0 -69 -2 -107.5t-10.5 -98t-30 -104.5t-57.5 -79q-20 -20 -57 -20q-42 0 -90 23t-70 50q-29 45 -29 87 q0 15 -2 50t-2 54z" />
<glyph unicode="d" horiz-adv-x="487" d="M53 6q8 328 8 733q0 341 -4 529q0 16 39 16q7 0 31 -1t41 -1q84 0 127 -39q19 -16 33.5 -34t25.5 -42.5t18 -40.5t13.5 -48.5t8.5 -45t7.5 -50.5t6.5 -46q26 -181 26 -358q0 -82 -6 -168q-1 -12 -3 -46t-3.5 -63t-1.5 -47q0 -101 -84 -179.5t-180 -78.5q-12 0 -40 2 t-42 2h-15q-6 0 -6 6zM80 27h22q10 0 26 -1t24 -1q85 0 161.5 75t79.5 158q10 322 10 354q0 82 -24 322q-6 51 -11.5 85t-18 80t-33 77.5t-48.5 48.5q-45 28 -118 28h-66q6 -267 6 -534q0 -406 -10 -692z" />
<glyph unicode="e" horiz-adv-x="458" d="M53 10q1 49 7 327.5t6 424.5q0 284 -13 500q2 7 8.5 13.5t14.5 6.5q36 0 98 -1t94 -1q36 0 85.5 1t66.5 1q14 0 14 -10q0 -15 -16 -15q-8 0 -64.5 -1t-95.5 -1q-19 0 -78 -1t-98 -1q12 -187 12 -469v-135q175 0 316 10q10 0 10 -8q0 -7 -6.5 -12.5t-16.5 -5.5 q-111 -10 -303 -10q0 -9 -1 -27t-1 -27q-9 -277 -12 -538q50 -1 85 -2t49.5 -1.5t21.5 -0.5q88 0 180 6q14 0 14 -15q0 -5 -4.5 -10.5t-11.5 -5.5q-82 -6 -164 -6q-100 0 -191 6q-6 0 -6 8z" />
<glyph unicode="f" horiz-adv-x="423" d="M53 0q0 129 1 274.5t2.5 323.5t2.5 276q0 82 -3 210.5t-3 181.5q2 7 8.5 13.5t14.5 6.5q113 -4 332 -4q6 -6 6 -10q0 -12 -11 -17h-161q-111 0 -162 2q0 -59 3.5 -171l4.5 -144q0 -48 2 -133.5t2 -126.5q10 0 26 -1t23 -1q18 0 51.5 1t49.5 1q53 0 82 -2q12 -4 12 -8 q0 -13 -12 -15q-4 -4 -95 -4q-119 0 -139 4q-1 -85 -5.5 -304t-4.5 -337q0 -24 -19 -24q-8 0 -8 8z" />
<glyph unicode="g" horiz-adv-x="456" d="M53 272q0 48 2 126.5t2 95.5q0 56 2 180t2 186q0 119 -4 176q-4 62 -4 101q0 51 23 84q22 27 78.5 50t101.5 23q23 0 43 -8q74 -40 95.5 -106.5t21.5 -180.5v-20q-8 -8 -13 -8q-13 0 -18 10q0 37 -1.5 64.5t-5 63.5t-12.5 61.5t-22.5 48.5t-36 35t-51.5 12q-46 0 -96 -23 t-66 -61q-14 -32 -14 -72q0 -4 0.5 -23t1.5 -70t2 -139t1.5 -266.5t0.5 -416.5q0 -79 12 -123q45 -56 123 -56q70 0 125 43q8 10 13 40t7 94t2.5 113.5t0.5 152.5q-101 0 -136 4q-8 0 -8 10q0 6 4.5 12.5t10.5 6.5q34 -3 89.5 -4t80.5 -3q10 -5 10 -14t-8 -12h-13 q0 -5 1 -52t1 -81q0 -251 -34 -283q-48 -51 -138 -51q-55 0 -100 25t-59 73q-17 55 -17 182z" />
<glyph unicode="h" horiz-adv-x="487" d="M53 936q0 106 17 342q3 8 16 8q12 0 14 -10q-12 -242 -12 -371q0 -54 1.5 -95t3.5 -75.5t3 -48.5q107 0 299 -4q-2 115 -6 264t-4 209q0 80 2 121q4 8 16 8q14 0 17 -10q0 -14 -1 -45t-1 -47q0 -61 4 -184.5t4 -186.5q0 -39 4 -346.5t4 -456.5q-5 -10 -16 -10 q-17 0 -17 12q0 106 -2 320t-2 323q-98 6 -297 6l11 -210q-1 -67 -9 -216t-8 -227q-2 -10 -16 -10q-17 0 -17 12q0 73 7.5 235t7.5 257q0 61 -9.5 177t-11.5 157q-2 33 -2 102z" />
<glyph unicode="i" horiz-adv-x="153" d="M53 1284q0 10 15 10q14 0 18 -8q0 -396 8 -711q1 -39 2.5 -107.5t2.5 -125.5t1 -109q0 -116 -6 -233q-3 -8 -18 -8q-17 0 -17 10q4 80 4 246q0 54 -2 161.5t-2 163.5q0 119 -3 356t-3 355z" />
<glyph unicode="j" horiz-adv-x="432" d="M10 221q0 43 4 117q3 6 17 6q13 0 16 -8q0 -16 -3 -53t-3 -56q0 -90 33 -149q17 -28 48 -44t66 -16q67 0 105 50q45 56 45 143q0 56 4 173t4 175q0 69 -6 303q-3 63 -4.5 206.5t-5.5 219.5q0 4 5.5 8t10.5 4q11 0 16 -10q11 -194 11 -426q0 -9 3 -110.5t3 -145.5v-51 q0 -186 -12 -350q0 -80 -46.5 -147.5t-119.5 -67.5q-38 0 -77.5 14.5t-62.5 38.5q-51 53 -51 176z" />
<glyph unicode="k" horiz-adv-x="405" d="M53 1278q0 12 15 12q11 0 14 -10q0 -112 4 -348t4 -348q0 -53 -2 -158t-2 -158q7 22 53 170q15 46 29 93.5t28 104t23 92.5t25 106t22 96q47 209 82 350q4 8 17 8t16 -10q-14 -55 -40.5 -175t-39.5 -175q-41 -178 -90 -357q43 -122 98 -360q2 -6 7 -28.5l7 -31.5t7 -28.5 t8.5 -31.5t9 -28t11.5 -30t12 -27q0 -12 -17 -12q-11 0 -14 8q-11 17 -19.5 47t-19.5 77.5t-22 82.5q-50 207 -82 311l-27 -84q-53 -169 -88 -237q0 -27 2 -59t2 -42q0 -34 4 -96q-2 -10 -16 -10t-17 8q-2 63 -2 195q0 64 2 194.5t2 196.5q0 112 -3 346t-3 346z" />
<glyph unicode="l" horiz-adv-x="421" d="M53 522q0 38 2 118t4.5 247t3.5 403q0 4 6 8.5t11 4.5q10 0 16 -11q0 -136 -5 -421.5t-5 -421.5q0 -71 5 -209t5 -211q39 -9 101 -9q33 0 99 6.5t99 6.5q17 -3 17 -15q0 -4 -4.5 -9t-12.5 -5q-39 0 -109.5 -7t-107.5 -7q-39 0 -104 10q-11 0 -11 10q0 130 -8 396 q-2 29 -2 116z" />
<glyph unicode="m" horiz-adv-x="745" d="M53 1149q0 90 2 135q4 8 17 8t16 -10q20 -91 73 -248t68 -209q17 -58 32 -130.5t30 -161t24 -132.5q8 -45 31 -137.5t31 -142.5q33 217 134 617.5t130 541.5q3 6 16 6q14 0 17 -8q12 -221 14 -332q4 -184 4 -571v-367q-2 -10 -16 -10q-17 0 -17 12q0 80 -1 241.5 t-1 242.5q0 285 -10 643q-140 -529 -254 -1131q-3 -10 -16 -10q-15 0 -17 12q-8 51 -79 391q-6 31 -30.5 160.5t-41.5 198.5q-15 60 -34.5 128t-51 171t-37.5 121v-48q0 -44 2 -133t2 -133v-190q0 -113 -1 -335.5t-1 -332.5q-2 -10 -16 -10q-17 0 -17 12q0 109 1 330.5 t1 333.5q-1 105 -2 211.5t-1.5 165t-0.5 100.5z" />
<glyph unicode="n" horiz-adv-x="497" d="M53 801q0 59 6 180.5t7 169.5q0 16 2 49t2 51q0 8 -0.5 14t-0.5 8.5t-0.5 5t-0.5 3.5q3 8 16 8q11 0 18 -12q17 -67 55 -185.5t52 -166.5q92 -332 158 -662q24 -113 39 -160q0 51 -3.5 290t-3.5 368q0 307 15 512q3 6 14 6q13 0 16 -8q-8 -151 -8 -336q0 -85 2 -263.5 t2 -262.5q0 -69 -1 -205t-1 -203q0 -8 -16 -8q-9 0 -16 20q-54 138 -74 248q-86 429 -156 662q-15 48 -44 137t-36 110v-22q-6 -333 -6 -350q0 -134 3 -338.5t3 -290.5q0 -111 -2 -166q-2 -10 -16 -10q-15 0 -15 12q5 298 5 356q0 111 -7.5 248.5t-7.5 190.5z" />
<glyph unicode="o" horiz-adv-x="526" d="M39 653q0 179 35 357q8 45 21.5 88.5t36 90.5t58 76t78.5 29q28 0 52 -15t39 -33.5t30.5 -53t21.5 -54t17 -55.5q59 -191 59 -419q0 -149 -30 -365q-5 -34 -10 -59t-15.5 -65.5t-24.5 -69t-33.5 -57t-47.5 -43.5t-62 -15q-25 0 -47 11t-37.5 24.5t-30.5 41t-23.5 45 t-19 52.5t-13.5 48t-11 46q-43 191 -43 395zM74 649q0 -196 41 -389q10 -42 16.5 -66.5t21 -62.5t36 -64.5t49.5 -41.5q14 -7 38 -7q1 0 5.5 2t11 4t10.5 3q55 46 79.5 112t39.5 164q29 179 29 342q0 157 -27 313q-6 31 -12.5 61.5t-21 78t-31 82.5t-40.5 62t-51 30 q-32 -5 -58 -26.5t-41.5 -47.5t-29 -66t-18.5 -64t-12 -60q-35 -181 -35 -359z" />
<glyph unicode="p" horiz-adv-x="419" d="M53 6q13 107 13 258q0 83 -6.5 248t-6.5 248q0 157 10 272q0 63 7 82q0 26 -1 79t-1 79q0 3 1.5 5.5t3.5 3.5t5 2t4 1h16q13 0 38.5 1t39.5 1q55 0 95.5 -14t72.5 -55q51 -61 51 -181q0 -30 -4 -84q-10 -96 -26 -176q-20 -92 -54 -121t-135 -47q-29 -4 -86 -4 q8 -226 8 -332q0 -184 -12 -268q-2 -10 -16 -10q-17 0 -17 12zM86 784q0 -41 2 -87t2 -64q106 0 205 41q18 23 37.5 95.5t19.5 115.5q10 118 10 139q0 35 -1.5 56.5t-8 50t-18.5 48t-35.5 39.5t-56.5 35q-9 0 -29.5 2t-30.5 2q-14 0 -41 -1t-39 -1v-36q0 -71 -8 -217 t-8 -218z" />
<glyph unicode="q" horiz-adv-x="495" d="M25 618q0 147 30 355q5 35 10 59.5t15.5 65.5t24.5 69.5t33.5 57.5t47.5 44t62 15q28 0 52 -13t41.5 -38.5t30.5 -49.5t24 -61t16 -58t12 -54q47 -203 47 -394q0 -174 -35 -346q-16 -88 -47 -147l72 -107q8 -5 8 -10q0 -6 -6 -10t-12 -4q-12 0 -15 8q-7 7 -17 20t-26 34 t-26 34q-50 -78 -138 -90q-18 2 -34 10t-27 15.5t-22.5 25.5t-16.5 25.5t-14.5 33.5t-11.5 31.5t-11 34.5l-6 27q-61 183 -61 417zM53 635q0 -43 3.5 -90.5t7 -74t12 -82t10.5 -71.5q7 -51 24.5 -111t51 -118t71.5 -70q66 10 117 97q-66 102 -86 153q0 6 5 9.5t10 3.5 q9 0 18 -9q15 -41 70 -120q25 60 36 120q33 186 33 344q0 93 -12.5 210.5t-32.5 189.5q-3 9 -12 41.5t-13.5 48t-15.5 44.5t-21.5 45.5t-26.5 34.5t-34 27q-3 0 -10.5 1.5t-11.5 1.5q-19 -3 -39 -9q-51 -46 -85 -129.5t-34 -150.5q-35 -206 -35 -336z" />
<glyph unicode="r" horiz-adv-x="430" d="M53 6q21 546 21 1262q0 4 2.5 6t6.5 3.5t5 2.5q4 0 26.5 1t39.5 1q159 0 200 -53q31 -40 31 -182q0 -106 -1 -153t-5.5 -115t-15 -95t-30 -59.5t-49 -45t-73.5 -18.5q57 -147 115 -377q4 -14 11.5 -44l12 -48t13.5 -43t18 -45q0 -2 -8.5 -6t-14.5 -4q-2 0 -10 4 q-13 26 -22.5 53.5t-21 75.5t-13.5 55q-61 244 -111 377h-18q-16 -4 -68 -4q2 -49 2 -141q0 -80 -5 -215t-5 -195q0 -10 -16 -10q-17 0 -17 12zM94 582l25 -2l67 8q5 2 7 2t4.5 -1t3.5 -1q31 0 43 4q92 32 102 147q10 66 10 168q0 76 -4 178q-1 6 -3.5 43.5t-9 60 t-22.5 36.5q-32 26 -163 26h-50q0 -78 -2 -229.5t-2 -224.5v-76q0 -23 -3 -69t-3 -70z" />
<glyph unicode="s" horiz-adv-x="438" d="M45 268v15q0 5 5 8.5t11 3.5q10 0 15 -10q0 -12 -1 -37.5t-1 -40.5q0 -99 45 -146q39 -45 86 -45q35 0 66 16.5t48 47.5q41 74 41 215q0 24 -1 69t-1 66q0 66 -28 124t-63.5 93t-90 87t-84.5 91q-43 55 -43 170q0 41 10 154q0 4 -2 9.5t-2 8.5q0 9 4 13q30 106 160 106 q39 0 63.5 -5.5t41.5 -25.5q53 -62 53 -208q0 -20 -1 -61t-1 -58q-3 -8 -17 -8q-16 0 -16 10v76q0 207 -66 251l-57 5q-35 0 -49.5 -4t-40.5 -23q-27 -33 -39 -57q0 -26 -5 -91t-5 -98q0 -71 20 -115q14 -30 40.5 -59.5t55.5 -55.5t58.5 -54t58 -64t45.5 -76q35 -79 35 -190 q0 -25 -2 -76t-2 -78q0 -91 -46 -159t-132 -68q-66 0 -113 47q-24 23 -37 68.5t-14.5 76.5t-1.5 82z" />
<glyph unicode="t" d="M10 1272q0 11 13 14q57 0 223 -5t221 -5q12 -2 12 -10q0 -13 -12 -13q-24 0 -99.5 3.5t-119.5 3.5q0 -55 -4 -158t-4 -156q0 -61 5 -149t12 -203.5t9 -155.5q0 -42 -1 -93.5t-1 -68.5q0 -47 1 -139t1 -133q-2 -10 -16 -10t-17 8q-1 57 -2 102t-1.5 64.5t-0.5 26.5 q0 52 2 79l7 164l-25 443q-4 74 -4 110q0 45 3 135t3 136q-40 0 -105.5 1t-86.5 1q-13 0 -13 8z" />
<glyph unicode="u" horiz-adv-x="505" d="M53 1049v231q0 6 5 11t10 5q11 0 16 -14v-446q0 -51 5 -155.5t5 -156.5v-69q0 -29 -1 -93t-1 -96q0 -173 80 -229q20 -14 66 -14q57 0 93 11.5t54.5 38.5t24.5 59.5t6 84.5q0 37 1 111t1 112q0 300 -12 832q0 10 16 10q10 0 14 -8q15 -353 15 -574q0 -39 1 -127t1 -127 t-1 -116.5t-1 -116.5q0 -141 -54 -178q-27 -18 -74 -30.5t-92 -12.5q-63 0 -90 24q-26 24 -37 43.5t-24 59.5q-21 64 -21 166q0 27 1 79t1 76q0 117 -4 320t-4 289z" />
<glyph unicode="v" horiz-adv-x="542" d="M10 1276q0 12 17 12q8 0 12 -8q38 -183 95.5 -598t107.5 -629q19 58 38 128.5t30 121t29.5 135t27.5 125.5q101 444 135 705q3 6 16 6q11 0 14 -8q-39 -302 -131 -705q-7 -30 -30 -136.5t-34.5 -154.5t-34.5 -128.5t-48 -145.5q-3 -8 -14 -8q-14 0 -17 6q-16 49 -29 99 t-24 117.5t-16 98.5t-16 118.5t-13 100.5q-74 535 -115 748z" />
<glyph unicode="w" horiz-adv-x="917" d="M10 1280q0 10 17 10q12 0 16 -8q22 -130 81 -549.5t105 -640.5q23 116 44.5 248.5t47 299.5t39.5 251q10 63 38 194t38 199q3 6 17 6q11 0 16 -8q19 -59 32 -129.5t25.5 -177.5t16.5 -135q86 -598 112 -754q60 227 136 676q18 102 83 526q8 8 17 8q13 0 16 -10 q-71 -466 -104 -645q-75 -417 -133 -641q-3 -8 -17 -8q-13 0 -16 6q-42 207 -97.5 615t-86.5 579q-12 -70 -43 -236t-45 -254q-4 -30 -23 -165.5t-28.5 -195t-28.5 -161.5t-39 -180q-3 -8 -17 -8q-10 0 -16 6q-33 99 -53 221t-37 262t-33 224q-37 192 -37 311 q-12 36 -19 80.5t-13 100t-11 83.5z" />
<glyph unicode="x" horiz-adv-x="413" d="M10 1278q0 12 17 12q13 0 16 -10q46 -211 156 -588q19 78 57 213q38 146 115 377q3 6 16 6t16 -8q-20 -59 -54 -181.5t-50 -172.5q-32 -102 -82 -297q4 -15 27.5 -115t54 -208.5t80.5 -258.5q1 -4 7.5 -19t6.5 -22q-3 -10 -16 -10q-17 0 -17 12q-30 69 -52.5 148t-53 203 t-53.5 208q-14 -57 -41 -166t-35.5 -142.5t-24.5 -94t-27 -94t-24 -68.5q-3 -10 -16 -10q-17 0 -17 12q14 37 26.5 77t25 86.5t20 77t20.5 87.5t19 80l55 219q-104 364 -121 432q-2 10 -22.5 93t-28.5 122z" />
<glyph unicode="y" horiz-adv-x="387" d="M10 1274q0 4 5.5 8t11.5 4q9 0 14 -10q0 -60 27 -156.5t69 -215t53 -156.5q4 13 47.5 154.5t61.5 213.5q12 57 29 113l14 41l2 8q0 10 16 10q12 0 17 -10q0 -13 -5 -29.5t-14 -38.5t-12 -30q-14 -56 -43.5 -156.5t-40.5 -140.5q-2 -7 -9.5 -36t-13.5 -51.5t-15.5 -48.5 t-18.5 -40q0 -66 -2 -201t-2 -203q0 -176 8 -299q-3 -10 -16 -10q-14 0 -17 8q-8 120 -8 293q0 68 2 207t2 209q-28 61 -39 127q-10 34 -40 118.5t-40 128.5q-7 28 -18.5 56.5t-16.5 60.5q0 3 -3 20t-3 25q-2 6 -2 27z" />
<glyph unicode="z" horiz-adv-x="409" d="M10 1274q0 7 13 10q102 -4 153 -4q35 0 102.5 1t102.5 1q13 0 18 -10q0 -20 -13.5 -61.5t-43 -132t-55.5 -187.5q-11 -41 -29.5 -123t-30.5 -123q-11 -40 -39.5 -117.5t-40.5 -117.5q-14 -51 -92 -387q10 0 57.5 -3.5t73.5 -3.5q48 0 181 9q6 -1 12 -6.5t6 -8.5 q0 -5 -12 -8q-79 -8 -180 -8q-87 0 -158 8q-1 0 -5.5 1.5t-7 3t-2.5 5.5q72 318 95 400q11 37 38.5 115.5t39.5 119.5q10 35 54 211t75 266q4 15 23.5 60.5t21.5 70.5q-111 -6 -174 -6t-170 11q-5 0 -9 5t-4 9z" />
<glyph unicode="{" horiz-adv-x="368" d="M37 639q0 5 10 12q33 11 53 33q23 47 23 117q0 26 -4 77.5t-4 75.5q-1 10 -4 41t-5 64t-2 61q0 97 25 129q36 39 98 39q30 0 51.5 -12.5t32 -29.5t17 -44t7.5 -46t1 -46q0 -12 -14 -12q-15 0 -15 14q0 28 -1 46t-5.5 40.5t-13 35t-25 21.5t-39.5 9q-29 0 -48 -11 t-27.5 -31t-11.5 -39.5t-3 -45.5q0 -82 8.5 -191t8.5 -149q0 -30 -4 -54.5t-9.5 -39t-15 -27t-15 -17t-15 -11t-11.5 -7.5q29 -19 46 -56.5t21 -68.5t7 -80q0 -6 1 -19.5t1 -19.5q0 -36 -5.5 -108.5t-5.5 -108.5q0 -37 1.5 -59.5t8.5 -51.5t23.5 -43t42.5 -14q51 0 72.5 40 t21.5 100q0 14 15 14q14 0 14 -12q0 -37 -8.5 -71t-35.5 -63.5t-69 -29.5q-35 0 -63.5 15.5t-36.5 45.5q-14 49 -14 125q0 43 6 133.5t6 132.5q0 169 -82 189q-10 0 -10 8z" />
<glyph unicode="|" horiz-adv-x="151" d="M53 1397q0 10 15 10q12 0 16 -8q0 -501 8 -809q1 -38 2.5 -105.5t2.5 -123t1 -105.5q0 -287 -6 -401q-3 -9 -16 -9q-17 0 -17 13q4 78 4 409q0 53 -2 159t-2 161q0 117 -3 405.5t-3 403.5z" />
<glyph unicode="}" horiz-adv-x="368" d="M25 1128q0 27 5.5 53t18 52.5t38 42.5t60.5 16q74 0 91 -61q14 -49 14 -125q0 -43 -6 -133.5t-6 -132.5q0 -75 21 -128t61 -65q10 0 10 -8q0 -2 -2 -3t-5.5 -2t-5.5 -3q-30 -10 -51 -33q-22 -45 -22 -117q0 -58 9 -163t9 -156q0 -79 -26.5 -123.5t-96.5 -44.5 q-30 0 -51 12.5t-32 29.5t-17 44t-7 46t-1 46q0 12 14 12t14 -14q0 -28 1 -46t5.5 -40.5t13 -35t25 -21.5t39.5 -9q91 0 91 127q0 82 -8.5 191t-8.5 149q0 30 4 54.5t9.5 39t15 27t15 17t15 11t11.5 7.5q-29 19 -46 56.5t-21 68.5t-7 80q0 44 6 126t6 124q0 35 -2.5 60.5 t-9.5 54t-24.5 44t-43.5 15.5q-51 0 -72.5 -40t-21.5 -100q0 -14 -14 -14t-14 12z" />
<glyph unicode="~" horiz-adv-x="346" d="M25 625q0 16 16 32q1 1 8 9t11 10.5t12.5 8t19 7.5t23.5 2q25 0 45 -19t40.5 -38t45.5 -19q15 0 26.5 7t16 15t9.5 15t9 7q5 0 10 -3.5t5 -9.5q0 -20 -29 -41q-19 -16 -51 -16q-20 0 -39 10.5t-45.5 34.5t-32.5 29q-8 4 -12 4q-32 0 -50 -25q-4 -5 -7.5 -14t-7 -14 t-7.5 -5q-16 0 -16 13z" />
<glyph unicode="&#xa1;" horiz-adv-x="155" d="M53 1270q0 6 7 14t14 8q11 0 16.5 -7t5.5 -15q0 -25 -20 -25q-9 0 -16 8t-7 17zM63 1126q5 11 17 11q13 0 16 -9q6 -264 6 -278q0 -74 -2 -111q-6 -327 -6 -372q0 -54 3 -179t3 -182q0 -7 -4.5 -11.5t-9.5 -4.5q-6 0 -11 4t-5 10q0 36 -1 120t-1 120q0 69 2 104v541 q0 122 -7 237z" />
<glyph unicode="&#xa2;" horiz-adv-x="450" d="M53 752q0 135 33 190q56 65 121 72q2 45 2 147q0 10 14 10q13 0 17 -8v-147q166 -11 166 -219q0 -7 -1.5 -20.5t-1.5 -20.5q-6 -28 -10 -29q-7 0 -10.5 5t-5.5 27.5t-2 67.5q0 149 -135 158q-4 -258 -4 -395q0 -56 3 -167t3 -167q0 -15 -1 -99.5t-1 -136.5q55 9 104 52 q27 39 27 108q0 11 -1 35t-1 37q0 8 12 8q6 0 12 -4t6 -8q0 -9 1 -34.5t1 -39.5q0 -91 -34 -125q-47 -47 -127 -57q-4 -114 -4 -137q-3 -9 -17 -9q-16 0 -16 13q0 10 1 55.5t1 75.5q-46 2 -83 25t-48 65q-19 58 -19 231q0 46 1 119.5t1 87.5q0 86 -2 117.5t-2 116.5zM84 690 q0 -369 3 -474.5t11 -135.5q45 -57 107 -60q2 96 2 248q0 53 -2 159t-2 161q0 141 4 399q-35 -3 -63.5 -22t-41.5 -45q-18 -39 -18 -230z" />
<glyph unicode="&#xa3;" horiz-adv-x="444" d="M25 621q0 16 14 16h39v92q-23 0 -39 2q-10 3 -10 12q0 17 8 17h41v61q0 5 -1.5 18.5t-3 46t-1.5 83.5q0 170 18 241q10 42 41 62t74 20q48 0 77.5 -9.5t40.5 -20.5t31 -37q41 -54 41 -189q0 -63 -8 -133q0 -4 -1 -12.5t-1 -11.5q0 -13 -14 -13q-6 0 -10.5 4.5t-4.5 10.5 q0 27 4 77v76q0 45 -4 79t-15.5 71.5t-38 59t-66.5 22.5q-5 0 -15.5 1t-15.5 1q-32 0 -60 -17q-47 -55 -47 -297q0 -49 2 -78.5t4 -41t2 -15.5v-57q36 -1 52 -1.5t18.5 -1t26.5 -1t78 -0.5q10 0 10 -17q0 -8 -8 -16q-7 0 -51 2t-126 2q0 -47 3 -94q28 0 86 -2t88 -2 q8 -3 8 -13q0 -16 -6 -16q-20 0 -39.5 -2t-42.5 -2q-31 0 -59 1t-33 1q0 -29 1 -86t1 -84q0 -257 -11 -403q20 2 62 2q20 0 61 -1t62 -1q67 0 116 10q17 -3 17 -14q0 -13 -10 -15q-31 -6 -121 -6h-72q-88 0 -129 -6q-18 0 -18 12q12 143 12 436q0 25 -1 78t-1 80h-39 q-7 0 -11.5 6t-4.5 13z" />
<glyph unicode="&#xa5;" horiz-adv-x="440" d="M25 281q0 9 12 14q70 2 166 2q0 119 2 180q-3 0 -14 0.5t-47 1t-101 0.5q-8 0 -13 5.5t-5 11.5q0 12 12 16q19 0 65 -1t103 -1q0 29 -1 100.5t-1 102.5q-28 61 -39 127q-10 34 -40 118.5t-40 128.5q-7 28 -18.5 56.5t-16.5 60.5q0 3 -3 20t-3 25q-2 6 -2 27q0 4 5 8t11 4 q10 0 15 -10q0 -60 27 -156.5t69 -215t53 -156.5q4 13 47.5 154.5t61.5 213.5q15 69 28 113l15 41l2 8q0 10 16 10q12 0 17 -10q0 -13 -5 -29.5t-14 -38.5t-12 -30q-14 -56 -43.5 -156.5t-40.5 -140.5q-2 -7 -9.5 -36t-13.5 -51.5t-15.5 -48.5t-18.5 -40q0 -69 0.5 -113 t1 -62t0.5 -24h24q71 0 139 -2q15 -5 15 -14q0 -17 -10 -17q-24 0 -64 -1t-104 -1q-2 -61 -2 -178q56 0 101.5 1t63.5 1q5 -2 10 -7t5 -9q0 -5 -6 -11t-13 -6q-51 0 -86 -0.5t-46 -0.5t-18.5 -0.5t-10.5 -0.5q0 -174 6 -260q-2 -10 -17 -10q-13 0 -16 8q-6 86 -6 260h-45 q-36 0 -66 1t-59 1q-8 0 -8 17z" />
<glyph unicode="&#xa7;" horiz-adv-x="401" d="M45 659q0 68 19.5 128t54.5 79l43 25q-54 55 -82.5 105t-28.5 114q0 38 15 88q12 39 58.5 67.5t96.5 28.5q53 0 76 -30q25 -31 37 -72.5t14 -73t2 -96.5q0 -12 -14 -12t-14 14q0 57 -2 87.5t-13.5 69t-34.5 68.5q-37 17 -57 17q-36 0 -82 -19q-29 -31 -38.5 -60.5 t-12.5 -88.5q0 -46 24 -89.5t60 -80t73 -73t68 -84.5t41 -99q8 -36 8 -68q0 -76 -31.5 -139.5t-93.5 -75.5q55 -55 85 -104.5t30 -114.5q0 -69 -12 -102q-30 -84 -137 -84q-39 0 -67.5 18t-44 44.5t-24.5 66t-11.5 72.5t-2.5 73q0 14 14 14q15 0 15 -12q0 -24 0.5 -39 t2.5 -44t6.5 -48t13.5 -43.5t21.5 -39t33 -24.5t45.5 -10q62 0 90 39.5t28 124.5q0 44 -12 72q-16 32 -50.5 71t-68.5 74t-67 75t-53.5 89.5t-20.5 101.5zM74 662q0 -64 24 -113q25 -51 113 -139q60 10 86.5 66.5t26.5 133.5q0 21 -5 56q-8 40 -32 80t-45 63.5t-60 62.5 q-20 -3 -43 -22q-65 -46 -65 -188z" />
<glyph unicode="&#xa8;" horiz-adv-x="194" d="M0 1380q0 10 7.5 16.5t15.5 6.5q22 0 22 -21q0 -9 -7 -15.5t-15 -6.5t-15.5 6.5t-7.5 13.5zM152 1380q0 8 6.5 15.5t13.5 7.5q10 0 16.5 -7.5t6.5 -15.5q0 -22 -21 -22q-9 0 -15.5 7t-6.5 15z" />
<glyph unicode="&#xa9;" horiz-adv-x="833" d="M25 510q0 45 2 120.5t2 104.5q0 20 1 58.5t1 62.5q0 104 13.5 176.5t59.5 126.5q60 60 143 92.5t171 32.5q97 0 182 -39.5t139 -116.5q70 -101 70 -319q0 -11 -6 -188q0 -23 1 -69.5t1 -68.5q0 -135 -21 -237q-19 -84 -77 -150q-43 -50 -119 -77t-162 -27 q-81 0 -155 22.5t-121 63.5q-50 44 -79 118.5t-37.5 146.5t-8.5 167zM55 639q0 -70 4 -238q4 -182 78 -272q115 -115 285 -115q101 0 183 40t124 124q49 103 49 328q0 30 -1 85t-1 77q0 8 -1 59.5t-1 87.5q0 57 -2.5 94.5t-10.5 87.5t-28.5 90.5t-52.5 71.5 q-46 45 -116 71.5t-144 26.5q-93 0 -179 -34t-128 -97q-15 -21 -24.5 -44t-15 -55.5t-7.5 -47t-4.5 -58.5t-2.5 -51q-4 -80 -4 -231zM258 205q3 85 8 203t6.5 159t3.5 121.5t2.5 159t0.5 203.5q0 6 4 12t10 6q4 0 26 1t39 1q158 0 201 -55q31 -40 31 -182q0 -166 -29 -220 q-5 -9 -11.5 -16.5t-12 -12.5t-15.5 -8.5t-16 -5.5t-20 -3.5t-20.5 -2t-24.5 -1.5t-25 -1q33 -65 63 -134t53 -116q16 -33 46 -112q0 -13 -21 -13l-10 5q-9 20 -47 114q-16 43 -30 75.5t-22 48.5t-29 57.5t-34 68.5q-35 -2 -86 -2q2 -49 2 -141q0 -80 -5 -115.5t-5 -95.5 q0 -10 -17 -10q-16 0 -16 12zM299 582l25 -2q66 8 82 8q83 0 114 26q17 15 26 60.5t10 84.5t1 113q-1 6 -3.5 43.5t-9 60t-22.5 36.5q-21 17 -69.5 21.5t-143.5 4.5q0 -78 -2 -123t-2 -118v-76q0 -23 -3 -69t-3 -70z" />
<glyph unicode="&#xab;" horiz-adv-x="387" d="M37 565q0 11 12 39t31.5 67t25.5 52q7 14 34 73.5t46 90.5q4 4 17 4q8 0 8 -19q-19 -32 -45.5 -90.5t-34.5 -74.5q-4 -9 -19.5 -41t-26.5 -56.5t-17 -42.5q6 -13 29.5 -61.5t52.5 -118.5q6 -17 21 -51t25.5 -61t10.5 -42q-3 -10 -23 -10q-4 4 -10.5 19t-22 55t-32.5 80 q-12 38 -41 94.5t-37 81.5q-4 2 -4 12zM176 549q0 21 38.5 96.5t43.5 91.5q17 39 33 80t22.5 55.5t10.5 18.5q19 0 22 -10q0 -15 -10.5 -42t-25.5 -61t-21 -51q-29 -70 -52.5 -118.5t-29.5 -61.5q3 -10 63 -139q8 -16 34.5 -75t45.5 -91q0 -6 -5.5 -12.5t-8.5 -6.5 q-18 0 -90 168q-6 14 -25.5 52.5t-32 66.5t-12.5 39z" />
<glyph unicode="&#xad;" horiz-adv-x="284" d="M12 639q0 16 6 16q20 0 39.5 1t42.5 1q22 0 35 -1t16 -1t8 -0.5t13.5 -1t30.5 -0.5h59q10 0 10 -16q0 -8 -8 -16q-18 0 -39 2t-45 2h-65q-48 0 -95 2q-8 3 -8 12z" />
<glyph unicode="&#xae;" horiz-adv-x="833" d="M25 459q0 32 6 209q0 22 -1 68t-1 69q0 133 20 231q20 88 78 154q43 49 118.5 74.5t162.5 25.5q81 0 155 -22.5t121 -63.5q125 -111 125 -440q0 -45 -2 -117.5t-2 -101.5q0 -20 1 -64.5t1 -68.5q0 -97 -16 -169.5t-62 -127.5q-61 -61 -143 -93t-170 -32q-98 0 -183 39 t-139 116q-69 99 -69 314zM55 498q0 -209 49 -312q42 -86 125.5 -130t182.5 -44q82 0 158.5 30t131.5 85q29 36 45.5 84.5t20 84t6.5 97.5q4 160 4 246q0 118 -6 238q-4 61 -7.5 93.5t-17.5 82.5t-38 84q-43 64 -123 97.5t-172 33.5q-77 0 -146 -23.5t-114 -66.5 q-42 -41 -64 -108.5t-25.5 -118t-3.5 -130.5q0 -36 -2 -95t-2 -67q0 -22 -1 -76.5t-1 -84.5zM254 457q0 85 2 141.5t2 142.5q0 1 -1 40t-1 69q0 118 10 143q13 43 59 66.5t97 23.5q86 0 145 -59q35 -35 35 -125q0 -14 -1 -39.5t-1 -34.5q0 -4 -6 -8t-12 -4q-13 0 -13 8 q0 13 1 37t1 35q0 71 -26 108q-61 52 -119 52q-79 0 -127 -60q-5 -7 -6.5 -13t-3 -46.5t-2 -117.5t-0.5 -232q0 -23 -2 -75.5t-2 -100.5q0 -82 20 -119q19 -29 54.5 -48.5t78.5 -19.5q42 0 72 22.5t43.5 58.5t18.5 66.5t5 61.5q0 46 2 68t5 27t10 5q6 0 8.5 -4.5t3.5 -23.5 q-1 -40 -1.5 -58t-4 -58t-9 -60t-18 -50t-29.5 -45t-43.5 -26.5t-60.5 -11.5q-40 0 -72 12.5t-47 26t-32 34.5q-29 45 -29 86q0 15 -2 50.5t-2 54.5z" />
<glyph unicode="&#xb0;" horiz-adv-x="372" d="M25 1143q6 75 52.5 114t108.5 39q66 0 114 -41.5t48 -115.5q0 -68 -47 -107t-111 -39q-63 0 -111 39t-54 111zM57 1145q6 -62 38.5 -93.5t82.5 -31.5q58 0 111 43q24 47 24 84q0 56 -39.5 89.5t-93.5 33.5q-48 0 -82.5 -31t-40.5 -94z" />
<glyph unicode="&#xb4;" horiz-adv-x="241" d="M0 1368q0 12 98 56.5t129 52.5q15 0 15 -11q0 -8 -15 -14l-26 -12q-170 -80 -189 -80q-12 0 -12 8z" />
<glyph unicode="&#xb6;" horiz-adv-x="499" d="M25 1047q0 68 21 123.5t63 80.5q32 19 57 25t65 6q39 0 93 -2t108 -2q14 -3 14 -12q0 -13 -30 -13q14 -200 14 -426q0 -79 -2 -236t-2 -235q0 -60 6 -180t6 -180q0 -12 -14 -12t-14 14q0 60 -6.5 180t-6.5 180q0 73 1 223.5t1 227.5q0 264 -12 444q-7 1 -23.5 4t-27.5 3 q-2 -76 -2 -226q0 -174 6 -520t6 -522q0 -12 -14 -12q-15 0 -15 14q0 342 -10 792q-19 0 -46 -1t-40 -1q-54 0 -88 19q-52 28 -80 96.5t-28 147.5z" />
<glyph unicode="&#xb7;" horiz-adv-x="149" d="M53 641q0 8 7 15.5t14 7.5q10 0 16 -7.5t6 -15.5q0 -10 -6.5 -16.5t-15.5 -6.5t-15 7.5t-6 15.5z" />
<glyph unicode="&#xb8;" horiz-adv-x="186" d="M0 -213q0 14 10 14q9 0 16.5 -8.5t13.5 -18t20.5 -18t35.5 -8.5q15 0 37.5 14t22.5 43q0 53 -43 70q-6 2 -27 2q-14 0 -20.5 3.5t-6.5 17.5q0 10 8.5 44.5t8.5 59.5q2 6 16 6q12 0 12 -14q0 -19 -3 -34.5t-8.5 -32.5t-6.5 -23q43 0 71.5 -30.5t28.5 -66.5q0 -29 -20 -49 q-34 -39 -72 -39q-18 0 -47 11q-12 5 -29.5 25t-17.5 32z" />
<glyph unicode="&#xbb;" horiz-adv-x="387" d="M37 872q0 19 8 19q12 0 16 -4q19 -31 46 -90.5t34 -73.5q6 -14 25.5 -52.5t32 -66.5t12.5 -39q0 -10 -4 -12q-8 -25 -37 -81.5t-41 -94.5q-17 -39 -33 -80t-22.5 -55.5t-10.5 -18.5q-19 0 -22 10q0 15 10.5 42t25.5 61t21 51q28 69 52.5 116t31.5 64q-6 18 -18 43.5 t-26.5 54.5t-20.5 42q-8 16 -34.5 74.5t-45.5 90.5zM176 242q19 32 45.5 91t34.5 75q2 5 30 60t36 79q-7 17 -31.5 64t-52.5 116q-6 17 -21.5 51t-26 61t-10.5 42q3 10 23 10q4 -4 10.5 -19t22 -55t32.5 -80q9 -27 43.5 -98t38.5 -90q0 -11 -12 -39t-31.5 -67t-25.5 -52 q-7 -14 -34 -73.5t-46 -90.5q-4 -4 -17 -4q-8 0 -8 19z" />
<glyph unicode="&#xbf;" horiz-adv-x="411" d="M45 831q0 22 6 121q4 100 39 144q40 55 109 55q73 0 125 -55q43 -53 43 -176q0 -95 -13 -152q-7 -40 -30.5 -76.5t-45.5 -56.5t-64 -53.5t-60 -49.5q-54 -46 -64 -94q0 -26 -5 -85t-5 -93q0 -131 33 -201q22 -43 94 -43q68 0 100 52q23 37 23 100q0 16 -2 45t-2 45 q3 8 16 8q11 0 14 -6q6 -46 6 -88q0 -61 -22 -109q-36 -67 -129 -67q-90 0 -131 59q-29 44 -29 217q0 104 6 127q0 46 25 87.5t55 67.5t75 62t67 58q57 57 57 235q0 103 -29 154.5t-100 66.5q-36 -4 -62 -12q-44 -34 -56.5 -86t-12.5 -137q0 -107 12 -168q0 -12 -16 -12 q-14 0 -17 10q-10 58 -10 106zM184 1266q0 8 7 15t14 7q10 0 16 -7t6 -15q0 -23 -20 -23q-9 0 -16 7.5t-7 15.5z" />
<glyph unicode="&#xc0;" d="M10 -2q7 27 13 68q63 300 111 594t59 350q6 29 13.5 85t16.5 99.5t25 79.5q3 6 12 12t14 6q8 0 13.5 -18t9.5 -48.5t4 -31.5l43 -338q10 -86 53 -407q4 -27 17.5 -89.5t17.5 -91.5q4 -27 24.5 -121.5t22.5 -146.5q0 -8 -12 -8q-6 0 -12 6q-3 19 -18.5 111t-26.5 141 q-3 10 -24.5 132t-25.5 138q-46 0 -111 -4t-112 -4l-84 -436q-16 -72 -20 -82q-6 -6 -13 -6q-10 0 -10 10zM127 1470q0 11 14 11q3 -1 42 -20.5t69 -28.5q41 -14 77 -36t36 -30t-13 -8q-37 8 -131 54t-94 58zM139 541q37 0 108 3t109 3q0 27 -5 58t-5 59q-26 145 -72 534 q-6 48 -6 62q-7 -17 -14 -47t-16 -78t-13 -66q-17 -83 -40.5 -249.5t-39.5 -248.5z" />
<glyph unicode="&#xc1;" d="M10 -2q7 27 13 68q63 300 111 594t59 350q6 29 13.5 85t16.5 99.5t25 79.5q3 6 12 12t14 6q8 0 13.5 -18t9.5 -48.5t4 -31.5l43 -338q10 -86 53 -407q4 -27 17.5 -89.5t17.5 -91.5q4 -27 24.5 -121.5t22.5 -146.5q0 -8 -12 -8q-6 0 -12 6q-3 19 -18.5 111t-26.5 141 q-3 10 -24.5 132t-25.5 138q-46 0 -111 -4t-112 -4l-84 -436q-16 -72 -20 -82q-6 -6 -13 -6q-10 0 -10 10zM125 1368q0 12 98 56.5t129 52.5q15 0 15 -11q0 -8 -15 -14l-26 -12q-170 -80 -189 -80q-12 0 -12 8zM139 541q37 0 108 3t109 3q0 27 -5 58t-5 59q-26 145 -72 534 q-6 48 -6 62q-7 -17 -14 -47t-16 -78t-13 -66q-17 -83 -40.5 -249.5t-39.5 -248.5z" />
<glyph unicode="&#xc2;" d="M10 -2q7 27 13 68q63 300 111 594t59 350q6 29 13.5 85t16.5 99.5t25 79.5q3 6 12 12t14 6q8 0 13.5 -18t9.5 -48.5t4 -31.5l43 -338q10 -86 53 -407q4 -27 17.5 -89.5t17.5 -91.5q4 -27 24.5 -121.5t22.5 -146.5q0 -8 -12 -8q-6 0 -12 6q-3 19 -18.5 111t-26.5 141 q-3 10 -24.5 132t-25.5 138q-46 0 -111 -4t-112 -4l-84 -436q-16 -72 -20 -82q-6 -6 -13 -6q-10 0 -10 10zM102 1368q0 14 31.5 47.5t44.5 38.5q1 2 8.5 12.5t13 17.5t13.5 16t16 13.5t15 4.5q19 0 82 -67t63 -79q0 -14 -14 -14q-11 0 -15 4q-15 16 -51.5 59t-64.5 68 q-20 -32 -113 -125q-6 -6 -18 -6q-4 0 -7.5 3.5t-3.5 6.5zM139 541q37 0 108 3t109 3q0 27 -5 58t-5 59q-26 145 -72 534q-6 48 -6 62q-7 -17 -14 -47t-16 -78t-13 -66q-17 -83 -40.5 -249.5t-39.5 -248.5z" />
<glyph unicode="&#xc3;" d="M10 -2q7 27 13 68q63 300 111 594t59 350q6 29 13.5 85t16.5 99.5t25 79.5q3 6 12 12t14 6q8 0 13.5 -18t9.5 -48.5t4 -31.5l43 -338q10 -86 53 -407q4 -27 17.5 -89.5t17.5 -91.5q4 -27 24.5 -121.5t22.5 -146.5q0 -8 -12 -8q-6 0 -12 6q-3 19 -18.5 111t-26.5 141 q-3 10 -24.5 132t-25.5 138q-46 0 -111 -4t-112 -4l-84 -436q-16 -72 -20 -82q-6 -6 -13 -6q-10 0 -10 10zM94 1405q0 24 26 42.5t50 18.5q27 0 70 -30t45 -31q12 -6 22 -6q15 0 31 4q8 4 16 10t12 10l3 4q7 13 18 13q10 0 10 -13q0 -19 -28 -38q-31 -19 -58 -19 q-18 0 -33.5 7.5t-38.5 24t-36 23.5q-18 11 -33 11q-34 0 -47 -33q0 -12 -14 -12q-15 0 -15 14zM139 541q37 0 108 3t109 3q0 27 -5 58t-5 59q-26 145 -72 534q-6 48 -6 62q-7 -17 -14 -47t-16 -78t-13 -66q-17 -83 -40.5 -249.5t-39.5 -248.5z" />
<glyph unicode="&#xc4;" d="M10 -2q7 27 13 68q63 300 111 594t59 350q6 29 13.5 85t16.5 99.5t25 79.5q3 6 12 12t14 6q8 0 13.5 -18t9.5 -48.5t4 -31.5l43 -338q10 -86 53 -407q4 -27 17.5 -89.5t17.5 -91.5q4 -27 24.5 -121.5t22.5 -146.5q0 -8 -12 -8q-6 0 -12 6q-3 19 -18.5 111t-26.5 141 q-3 10 -24.5 132t-25.5 138q-46 0 -111 -4t-112 -4l-84 -436q-16 -72 -20 -82q-6 -6 -13 -6q-10 0 -10 10zM139 541q37 0 108 3t109 3q0 27 -5 58t-5 59q-26 145 -72 534q-6 48 -6 62q-7 -17 -14 -47t-16 -78t-13 -66q-17 -83 -40.5 -249.5t-39.5 -248.5zM147 1380 q0 10 7.5 16.5t15.5 6.5q23 0 23 -21q0 -9 -7.5 -15.5t-15.5 -6.5t-15.5 6.5t-7.5 13.5zM299 1380q0 8 6.5 15.5t13.5 7.5q10 0 16.5 -7.5t6.5 -15.5q0 -22 -20 -22q-9 0 -16 7t-7 15z" />
<glyph unicode="&#xc5;" d="M10 -2q7 27 13 68q63 300 111 594t59 350q6 29 13.5 85t16.5 99.5t25 79.5q3 6 12 12t14 6q8 0 13.5 -18t9.5 -48.5t4 -31.5l43 -338q10 -86 53 -407q4 -27 17.5 -89.5t17.5 -91.5q4 -27 24.5 -121.5t22.5 -146.5q0 -8 -12 -8q-6 0 -12 6q-3 19 -18.5 111t-26.5 141 q-3 10 -24.5 132t-25.5 138q-46 0 -111 -4t-112 -4l-84 -436q-16 -72 -20 -82q-6 -6 -13 -6q-10 0 -10 10zM139 541q37 0 108 3t109 3q0 27 -5 58t-5 59q-26 145 -72 534q-6 48 -6 62q-7 -17 -14 -47t-16 -78t-13 -66q-17 -83 -40.5 -249.5t-39.5 -248.5zM154 1462 q0 55 31.5 84t76.5 29q46 0 80.5 -30t34.5 -83q0 -51 -32 -79.5t-75 -28.5t-76 27.5t-40 80.5zM182 1464q7 -43 29.5 -65.5t50.5 -22.5q31 0 55.5 23.5t24.5 60.5q0 32 -20 68q-27 24 -62 24q-32 0 -55 -24t-23 -64z" />
<glyph unicode="&#xc6;" horiz-adv-x="899" d="M10 -4q36 107 81.5 222t105 257t90.5 219q109 275 207 568q2 8 7 14t11 6q38 0 101.5 -1t95.5 -1q36 0 85 1t66 1q14 0 14 -10q0 -15 -16 -15q-8 0 -64.5 -1t-95.5 -1q-19 0 -78 -1t-98 -1q13 -203 13 -469v-135q174 0 315 10q10 0 10 -8q0 -7 -6 -12.5t-16 -5.5 q-111 -10 -301 -10q-11 -226 -15 -592q50 -1 84.5 -2t48.5 -1.5t21 -0.5q88 0 180 6q14 0 14 -15q0 -5 -4.5 -10.5t-11.5 -5.5q-82 -6 -164 -6q-98 0 -190 6q-6 0 -6 8q1 96 5 284.5t5 280.5q-18 -2 -49 -2q-14 0 -45.5 1t-53.5 1h-82q-18 -43 -60 -141.5t-65 -153t-55 -137 t-55 -153.5q-6 -6 -14 -6q-15 0 -15 12zM285 600q55 2 123 2q27 0 56 -1t40 -1q2 53 2 162q0 231 -8 416q-59 -180 -174 -482z" />
<glyph unicode="&#xc7;" horiz-adv-x="440" d="M53 254q0 85 2 250.5t2 251.5q0 14 -1 87.5t-1 119.5q0 173 19 231q13 44 51.5 67t87.5 23q95 0 154 -59q34 -34 34 -125q0 -14 -1 -39.5t-1 -34.5q0 -4 -6 -8t-12 -4q-12 0 -12 8q0 13 1 37t1 35q0 69 -27 108q-60 51 -127 51q-72 0 -119 -59q-8 -29 -10 -128.5 t-2 -481.5q0 -53 -3 -162t-3 -164v-53q0 -78 22 -119q18 -27 60 -47.5t82 -20.5q39 0 67.5 37.5t41 94t17.5 100.5t5 78q0 45 2 67.5t5.5 27.5t10.5 5q6 0 7 -4t3 -25q0 -69 -2 -107.5t-10.5 -98t-30 -104.5t-57.5 -79q-20 -20 -57 -20q-42 0 -90 23t-70 50q-29 45 -29 87 q0 15 -2 50t-2 54zM123 -213q0 14 10 14q9 0 16.5 -8.5t13.5 -18t20.5 -18t35.5 -8.5q15 0 37.5 14t22.5 43q0 53 -43 70q-6 2 -27 2q-14 0 -20.5 3.5t-6.5 17.5q0 10 8.5 44.5t8.5 59.5q2 6 16 6q12 0 12 -14q0 -19 -3 -34.5t-8.5 -32.5t-6.5 -23q43 0 71.5 -30.5 t28.5 -66.5q0 -29 -20 -49q-34 -39 -72 -39q-18 0 -47 11q-12 5 -29.5 25t-17.5 32z" />
<glyph unicode="&#xc8;" horiz-adv-x="458" d="M53 10q1 49 7 327.5t6 424.5q0 284 -13 500q2 7 8.5 13.5t14.5 6.5q36 0 98 -1t94 -1q36 0 85.5 1t66.5 1q14 0 14 -10q0 -15 -16 -15q-8 0 -64.5 -1t-95.5 -1q-19 0 -78 -1t-98 -1q12 -187 12 -469v-135q175 0 316 10q10 0 10 -8q0 -7 -6.5 -12.5t-16.5 -5.5 q-111 -10 -303 -10q0 -9 -1 -27t-1 -27q-9 -277 -12 -538q50 -1 85 -2t49.5 -1.5t21.5 -0.5q88 0 180 6q14 0 14 -15q0 -5 -4.5 -10.5t-11.5 -5.5q-82 -6 -164 -6q-100 0 -191 6q-6 0 -6 8zM94 1470q0 11 15 11q3 -1 41.5 -20.5t68.5 -28.5q41 -14 77 -36t36 -30t-13 -8 q-37 8 -131 54t-94 58z" />
<glyph unicode="&#xc9;" horiz-adv-x="458" d="M53 10q1 49 7 327.5t6 424.5q0 284 -13 500q2 7 8.5 13.5t14.5 6.5q36 0 98 -1t94 -1q36 0 85.5 1t66.5 1q14 0 14 -10q0 -15 -16 -15q-8 0 -64.5 -1t-95.5 -1q-19 0 -78 -1t-98 -1q12 -187 12 -469v-135q175 0 316 10q10 0 10 -8q0 -7 -6.5 -12.5t-16.5 -5.5 q-111 -10 -303 -10q0 -9 -1 -27t-1 -27q-9 -277 -12 -538q50 -1 85 -2t49.5 -1.5t21.5 -0.5q88 0 180 6q14 0 14 -15q0 -5 -4.5 -10.5t-11.5 -5.5q-82 -6 -164 -6q-100 0 -191 6q-6 0 -6 8zM92 1368q0 12 98 56.5t129 52.5q15 0 15 -11q0 -8 -15 -14l-26 -12 q-170 -80 -189 -80q-12 0 -12 8z" />
<glyph unicode="&#xca;" horiz-adv-x="458" d="M53 10q1 49 7 327.5t6 424.5q0 284 -13 500q2 7 8.5 13.5t14.5 6.5q36 0 98 -1t94 -1q36 0 85.5 1t66.5 1q14 0 14 -10q0 -15 -16 -15q-8 0 -64.5 -1t-95.5 -1q-19 0 -78 -1t-98 -1q12 -187 12 -469v-135q175 0 316 10q10 0 10 -8q0 -7 -6.5 -12.5t-16.5 -5.5 q-111 -10 -303 -10q0 -9 -1 -27t-1 -27q-9 -277 -12 -538q50 -1 85 -2t49.5 -1.5t21.5 -0.5q88 0 180 6q14 0 14 -15q0 -5 -4.5 -10.5t-11.5 -5.5q-82 -6 -164 -6q-100 0 -191 6q-6 0 -6 8zM70 1368q0 14 31 47.5t44 38.5q1 2 8.5 12.5t13 17.5t13.5 16t16 13.5t15 4.5 q19 0 82 -67t63 -79q0 -14 -14 -14q-10 0 -14 4q-14 15 -51.5 58.5t-65.5 68.5q-20 -32 -113 -125q-6 -6 -18 -6q-10 0 -10 10z" />
<glyph unicode="&#xcb;" horiz-adv-x="458" d="M53 10q1 49 7 327.5t6 424.5q0 284 -13 500q2 7 8.5 13.5t14.5 6.5q36 0 98 -1t94 -1q36 0 85.5 1t66.5 1q14 0 14 -10q0 -15 -16 -15q-8 0 -64.5 -1t-95.5 -1q-19 0 -78 -1t-98 -1q12 -187 12 -469v-135q175 0 316 10q10 0 10 -8q0 -7 -6.5 -12.5t-16.5 -5.5 q-111 -10 -303 -10q0 -9 -1 -27t-1 -27q-9 -277 -12 -538q50 -1 85 -2t49.5 -1.5t21.5 -0.5q88 0 180 6q14 0 14 -15q0 -5 -4.5 -10.5t-11.5 -5.5q-82 -6 -164 -6q-100 0 -191 6q-6 0 -6 8zM117 1380q0 10 7 16.5t15 6.5q23 0 23 -21q0 -9 -7.5 -15.5t-15.5 -6.5t-15 6.5 t-7 13.5zM268 1380q0 8 7 15.5t14 7.5q10 0 16 -7.5t6 -15.5q0 -22 -20 -22q-9 0 -16 7t-7 15z" />
<glyph unicode="&#xcc;" horiz-adv-x="188" d="M-25 1470q0 11 15 11q3 -1 41.5 -20.5t68.5 -28.5q41 -14 77 -36t36 -30t-12 -8q-37 8 -131.5 54t-94.5 58zM70 1284q0 10 14 10t18 -8q0 -357 9 -711q1 -39 2.5 -107.5t2.5 -125.5t1 -109q0 -116 -6 -233q-3 -8 -19 -8t-16 10q4 80 4 246q0 54 -2 161.5t-2 163.5 q0 119 -3 356t-3 355z" />
<glyph unicode="&#xcd;" horiz-adv-x="180" d="M-25 1368q0 12 98.5 56.5t129.5 52.5q14 0 14 -11q0 -8 -14 -14l-26 -12q-170 -80 -189 -80q-13 0 -13 8zM72 1284q0 10 14 10t18 -8q0 -357 9 -711q1 -39 2.5 -107.5t2.5 -125.5t1 -109q0 -116 -6 -233q-3 -8 -19 -8t-16 10q4 80 4 246q0 54 -2 161.5t-2 163.5 q0 119 -3 356t-3 355z" />
<glyph unicode="&#xce;" horiz-adv-x="192" d="M-47 1368q0 14 31.5 47.5t44.5 38.5q0 1 11 16t17.5 23t17 16.5t19.5 8.5q19 0 82.5 -67t63.5 -79q0 -14 -15 -14q-10 0 -14 4q-14 15 -51.5 58.5t-65.5 68.5q-22 -35 -112 -125q-6 -6 -19 -6q-10 0 -10 10zM70 1284q0 10 14 10t18 -8q0 -357 9 -711q1 -39 2.5 -107.5 t2.5 -125.5t1 -109q0 -116 -6 -233q-3 -8 -19 -8t-16 10q4 80 4 246q0 54 -2 161.5t-2 163.5q0 119 -3 356t-3 355z" />
<glyph unicode="&#xcf;" horiz-adv-x="194" d="M0 1380q0 10 7.5 16.5t15.5 6.5q22 0 22 -21q0 -9 -7 -15.5t-15 -6.5t-15.5 6.5t-7.5 13.5zM72 1284q0 10 14 10t18 -8q0 -357 9 -711q1 -39 2.5 -107.5t2.5 -125.5t1 -109q0 -116 -6 -233q-3 -8 -19 -8t-16 10q4 80 4 246q0 54 -2 161.5t-2 163.5q0 119 -3 356t-3 355z M152 1380q0 8 6.5 15.5t13.5 7.5q10 0 16.5 -7.5t6.5 -15.5q0 -22 -21 -22q-9 0 -15.5 7t-6.5 15z" />
<glyph unicode="&#xd0;" horiz-adv-x="499" d="M25 637q0 16 10 16h39v86q0 341 -4 529q0 16 39 16q7 0 30.5 -1t40.5 -1q84 0 127 -39q19 -16 33.5 -34t25.5 -42.5t18 -40.5t13.5 -48.5t8.5 -45t7.5 -50.5t6.5 -46q26 -181 26 -358q0 -82 -6 -168q-1 -12 -3 -46t-3.5 -63t-1.5 -47q0 -101 -84 -179.5t-180 -78.5 q-12 0 -40 2t-42 2h-14q-6 0 -6 6q4 211 8 617q-12 -2 -41 -2q-8 8 -8 16zM92 27h23q10 0 25.5 -1t23.5 -1q85 0 162 75t80 158q10 322 10 354q0 72 -25 322q-6 52 -11.5 85t-17.5 79.5t-32.5 78t-48.5 48.5q-45 28 -119 28h-66q6 -267 6 -534v-66q23 0 39.5 1.5t55.5 2.5 q23 0 42.5 -1t39.5 -1q6 0 6 -16q0 -9 -9 -12q-47 -2 -174 -2q-4 -398 -10 -598z" />
<glyph unicode="&#xd1;" horiz-adv-x="497" d="M53 801q0 59 6 180.5t7 169.5q0 16 2 49t2 51q0 8 -0.5 14t-0.5 8.5t-0.5 5t-0.5 3.5q3 8 16 8q11 0 18 -12q17 -67 55 -185.5t52 -166.5q92 -332 158 -662q24 -113 39 -160q0 51 -3.5 290t-3.5 368q0 307 15 512q3 6 14 6q13 0 16 -8q-8 -151 -8 -336q0 -85 2 -263.5 t2 -262.5q0 -69 -1 -205t-1 -203q0 -8 -16 -8q-9 0 -16 20q-54 138 -74 248q-86 429 -156 662q-15 48 -44 137t-36 110v-22q-6 -333 -6 -350q0 -134 3 -338.5t3 -290.5q0 -111 -2 -166q-2 -10 -16 -10q-15 0 -15 12q5 298 5 356q0 111 -7.5 248.5t-7.5 190.5zM100 1405 q0 24 26 42.5t50 18.5q27 0 70 -30t45 -31q12 -6 22 -6q15 0 31 4q8 4 16 10t12 10l3 4q7 13 18 13q10 0 10 -13q0 -19 -28 -38q-31 -19 -58 -19q-18 0 -33.5 7.5t-38.5 24t-36 23.5q-18 11 -33 11q-34 0 -47 -33q0 -12 -14 -12q-15 0 -15 14z" />
<glyph unicode="&#xd2;" horiz-adv-x="497" d="M25 653q0 184 34 357q8 45 21.5 88.5t36.5 90.5t58.5 76t78.5 29q28 0 52 -15t39 -33.5t30.5 -53t21.5 -54t17 -55.5q59 -191 59 -419q0 -142 -31 -365q-5 -35 -10 -59.5t-15 -65t-24 -69t-33.5 -57t-47.5 -43.5t-62 -15q-25 0 -47 11t-37.5 24.5t-30.5 41t-23.5 45 t-19 52.5t-13.5 48t-11 46q-43 191 -43 395zM59 649q0 -196 41 -389q10 -42 16.5 -66.5t21 -62.5t36 -64.5t49.5 -41.5q14 -7 39 -7q1 0 5.5 2t11 4t10.5 3q55 46 79.5 112t39.5 164q28 173 28 342q0 163 -26 313q-6 31 -12.5 61.5t-21 78t-31 82.5t-40.5 62t-51 30 q-39 -6 -68.5 -34t-47.5 -74t-27 -78.5t-17 -77.5q-35 -181 -35 -359zM131 1470q0 11 14 11q3 -1 42 -20.5t69 -28.5q41 -14 77 -36t36 -30t-13 -8q-37 8 -131 54t-94 58z" />
<glyph unicode="&#xd3;" horiz-adv-x="497" d="M25 653q0 184 34 357q8 45 21.5 88.5t36.5 90.5t58.5 76t78.5 29q28 0 52 -15t39 -33.5t30.5 -53t21.5 -54t17 -55.5q59 -191 59 -419q0 -142 -31 -365q-5 -35 -10 -59.5t-15 -65t-24 -69t-33.5 -57t-47.5 -43.5t-62 -15q-25 0 -47 11t-37.5 24.5t-30.5 41t-23.5 45 t-19 52.5t-13.5 48t-11 46q-43 191 -43 395zM59 649q0 -196 41 -389q10 -42 16.5 -66.5t21 -62.5t36 -64.5t49.5 -41.5q14 -7 39 -7q1 0 5.5 2t11 4t10.5 3q55 46 79.5 112t39.5 164q28 173 28 342q0 163 -26 313q-6 31 -12.5 61.5t-21 78t-31 82.5t-40.5 62t-51 30 q-39 -6 -68.5 -34t-47.5 -74t-27 -78.5t-17 -77.5q-35 -181 -35 -359zM129 1368q0 12 98 56.5t129 52.5q15 0 15 -11q0 -8 -15 -14l-26 -12q-170 -80 -189 -80q-12 0 -12 8z" />
<glyph unicode="&#xd4;" horiz-adv-x="497" d="M25 653q0 184 34 357q8 45 21.5 88.5t36.5 90.5t58.5 76t78.5 29q28 0 52 -15t39 -33.5t30.5 -53t21.5 -54t17 -55.5q59 -191 59 -419q0 -142 -31 -365q-5 -35 -10 -59.5t-15 -65t-24 -69t-33.5 -57t-47.5 -43.5t-62 -15q-25 0 -47 11t-37.5 24.5t-30.5 41t-23.5 45 t-19 52.5t-13.5 48t-11 46q-43 191 -43 395zM59 649q0 -196 41 -389q10 -42 16.5 -66.5t21 -62.5t36 -64.5t49.5 -41.5q14 -7 39 -7q1 0 5.5 2t11 4t10.5 3q55 46 79.5 112t39.5 164q28 173 28 342q0 163 -26 313q-6 31 -12.5 61.5t-21 78t-31 82.5t-40.5 62t-51 30 q-39 -6 -68.5 -34t-47.5 -74t-27 -78.5t-17 -77.5q-35 -181 -35 -359zM106 1368q0 14 31.5 47.5t44.5 38.5q1 2 8.5 12.5t13 17.5t13.5 16t16 13.5t15 4.5q19 0 82 -67t63 -79q0 -14 -14 -14q-10 0 -14 4q-14 15 -51.5 58.5t-65.5 68.5q-20 -32 -113 -125q-6 -6 -18 -6 q-4 0 -7.5 3.5t-3.5 6.5z" />
<glyph unicode="&#xd5;" horiz-adv-x="497" d="M25 653q0 184 34 357q8 45 21.5 88.5t36.5 90.5t58.5 76t78.5 29q28 0 52 -15t39 -33.5t30.5 -53t21.5 -54t17 -55.5q59 -191 59 -419q0 -142 -31 -365q-5 -35 -10 -59.5t-15 -65t-24 -69t-33.5 -57t-47.5 -43.5t-62 -15q-25 0 -47 11t-37.5 24.5t-30.5 41t-23.5 45 t-19 52.5t-13.5 48t-11 46q-43 191 -43 395zM59 649q0 -196 41 -389q10 -42 16.5 -66.5t21 -62.5t36 -64.5t49.5 -41.5q14 -7 39 -7q1 0 5.5 2t11 4t10.5 3q55 46 79.5 112t39.5 164q28 173 28 342q0 163 -26 313q-6 31 -12.5 61.5t-21 78t-31 82.5t-40.5 62t-51 30 q-39 -6 -68.5 -34t-47.5 -74t-27 -78.5t-17 -77.5q-35 -181 -35 -359zM98 1405q0 24 26 42.5t50 18.5q27 0 70 -30t45 -31q12 -6 22 -6q15 0 31 4q8 4 16 10t12 10l3 4q7 13 18 13q10 0 10 -13q0 -19 -28 -38q-31 -19 -58 -19q-18 0 -33.5 7.5t-38.5 24t-36 23.5 q-18 11 -33 11q-34 0 -47 -33q0 -12 -14 -12q-15 0 -15 14z" />
<glyph unicode="&#xd6;" horiz-adv-x="497" d="M25 653q0 184 34 357q8 45 21.5 88.5t36.5 90.5t58.5 76t78.5 29q28 0 52 -15t39 -33.5t30.5 -53t21.5 -54t17 -55.5q59 -191 59 -419q0 -142 -31 -365q-5 -35 -10 -59.5t-15 -65t-24 -69t-33.5 -57t-47.5 -43.5t-62 -15q-25 0 -47 11t-37.5 24.5t-30.5 41t-23.5 45 t-19 52.5t-13.5 48t-11 46q-43 191 -43 395zM59 649q0 -196 41 -389q10 -42 16.5 -66.5t21 -62.5t36 -64.5t49.5 -41.5q14 -7 39 -7q1 0 5.5 2t11 4t10.5 3q55 46 79.5 112t39.5 164q28 173 28 342q0 163 -26 313q-6 31 -12.5 61.5t-21 78t-31 82.5t-40.5 62t-51 30 q-39 -6 -68.5 -34t-47.5 -74t-27 -78.5t-17 -77.5q-35 -181 -35 -359zM152 1380q0 10 7 16.5t15 6.5q23 0 23 -21q0 -9 -7.5 -15.5t-15.5 -6.5t-15 6.5t-7 13.5zM303 1380q0 8 7 15.5t14 7.5q10 0 16 -7.5t6 -15.5q0 -22 -20 -22q-9 0 -16 7t-7 15z" />
<glyph unicode="&#xd8;" horiz-adv-x="497" d="M25 655q0 181 34 351q50 282 195 282q70 0 123 -112l49 118q18 0 18 -14l-49 -152q78 -238 78 -462q0 -140 -31 -359q-6 -35 -10.5 -59.5t-14.5 -65.5t-24 -69.5t-33.5 -57.5t-47.5 -44t-62 -15q-85 0 -137 121q-14 -58 -19 -99q-1 -2 -2 -7t-2 -7t-5 -4t-11 -2 q-1 0 -4 1q-11 3 -11 11q10 62 35 156q-12 34 -26 100q-43 188 -43 389zM59 651q0 -306 52 -422q14 71 47 183q12 41 39 120.5t39 118.5q24 81 62 240t62 239q-46 126 -106 134q-39 -5 -68.5 -32.5t-47.5 -73t-27 -77.5t-17 -77q-35 -178 -35 -353zM125 172q35 -112 98 -143 q12 -6 39 -6q32 0 59.5 34.5t45 89.5t26.5 91t15 71q28 173 28 336q0 161 -26 311q-7 42 -29 117q-40 -145 -69.5 -269t-39.5 -155q-9 -31 -66.5 -207t-80.5 -270z" />
<glyph unicode="&#xd9;" horiz-adv-x="505" d="M53 1049v231q0 6 5 11t10 5q11 0 16 -14v-446q0 -51 5 -155.5t5 -156.5v-69q0 -29 -1 -93t-1 -96q0 -173 80 -229q20 -14 66 -14q57 0 93 11.5t54.5 38.5t24.5 59.5t6 84.5q0 37 1 111t1 112q0 300 -12 832q0 10 16 10q10 0 14 -8q15 -353 15 -574q0 -39 1 -127t1 -127 t-1 -116.5t-1 -116.5q0 -141 -54 -178q-27 -18 -74 -30.5t-92 -12.5q-63 0 -90 24q-26 24 -37 43.5t-24 59.5q-21 64 -21 166q0 27 1 79t1 76q0 117 -4 320t-4 289zM135 1470q0 11 15 11q3 -1 41.5 -20.5t68.5 -28.5q41 -14 77 -36t36 -30t-13 -8q-37 8 -131 54t-94 58z" />
<glyph unicode="&#xda;" horiz-adv-x="505" d="M53 1049v231q0 6 5 11t10 5q11 0 16 -14v-446q0 -51 5 -155.5t5 -156.5v-69q0 -29 -1 -93t-1 -96q0 -173 80 -229q20 -14 66 -14q57 0 93 11.5t54.5 38.5t24.5 59.5t6 84.5q0 37 1 111t1 112q0 300 -12 832q0 10 16 10q10 0 14 -8q15 -353 15 -574q0 -39 1 -127t1 -127 t-1 -116.5t-1 -116.5q0 -141 -54 -178q-27 -18 -74 -30.5t-92 -12.5q-63 0 -90 24q-26 24 -37 43.5t-24 59.5q-21 64 -21 166q0 27 1 79t1 76q0 117 -4 320t-4 289zM133 1368q0 12 98 56.5t129 52.5q15 0 15 -11q0 -8 -15 -14l-26 -12q-170 -80 -189 -80q-12 0 -12 8z" />
<glyph unicode="&#xdb;" horiz-adv-x="505" d="M53 1049v231q0 6 5 11t10 5q11 0 16 -14v-446q0 -51 5 -155.5t5 -156.5v-69q0 -29 -1 -93t-1 -96q0 -173 80 -229q20 -14 66 -14q57 0 93 11.5t54.5 38.5t24.5 59.5t6 84.5q0 37 1 111t1 112q0 300 -12 832q0 10 16 10q10 0 14 -8q15 -353 15 -574q0 -39 1 -127t1 -127 t-1 -116.5t-1 -116.5q0 -141 -54 -178q-27 -18 -74 -30.5t-92 -12.5q-63 0 -90 24q-26 24 -37 43.5t-24 59.5q-21 64 -21 166q0 27 1 79t1 76q0 117 -4 320t-4 289zM111 1368q0 14 31 47.5t44 38.5q1 2 8.5 12.5t13 17.5t13.5 16t16 13.5t15 4.5q19 0 82 -67t63 -79 q0 -14 -14 -14q-10 0 -14 4q-14 15 -51.5 58.5t-65.5 68.5q-20 -32 -113 -125q-6 -6 -18 -6q-10 0 -10 10z" />
<glyph unicode="&#xdc;" horiz-adv-x="505" d="M53 1049v231q0 6 5 11t10 5q11 0 16 -14v-446q0 -51 5 -155.5t5 -156.5v-69q0 -29 -1 -93t-1 -96q0 -173 80 -229q20 -14 66 -14q57 0 93 11.5t54.5 38.5t24.5 59.5t6 84.5q0 37 1 111t1 112q0 300 -12 832q0 10 16 10q10 0 14 -8q15 -353 15 -574q0 -39 1 -127t1 -127 t-1 -116.5t-1 -116.5q0 -141 -54 -178q-27 -18 -74 -30.5t-92 -12.5q-63 0 -90 24q-26 24 -37 43.5t-24 59.5q-21 64 -21 166q0 27 1 79t1 76q0 117 -4 320t-4 289zM156 1380q0 10 7 16.5t15 6.5q23 0 23 -21q0 -9 -7.5 -15.5t-15.5 -6.5t-15 6.5t-7 13.5zM307 1380 q0 8 7 15.5t14 7.5q10 0 16 -7.5t6 -15.5q0 -22 -20 -22q-9 0 -16 7t-7 15z" />
<glyph unicode="&#xdd;" horiz-adv-x="387" d="M10 1274q0 4 5.5 8t11.5 4q9 0 14 -10q0 -60 27 -156.5t69 -215t53 -156.5q4 13 47.5 154.5t61.5 213.5q12 57 29 113l14 41l2 8q0 10 16 10q12 0 17 -10q0 -13 -5 -29.5t-14 -38.5t-12 -30q-14 -56 -43.5 -156.5t-40.5 -140.5q-2 -7 -9.5 -36t-13.5 -51.5t-15.5 -48.5 t-18.5 -40q0 -66 -2 -201t-2 -203q0 -176 8 -299q-3 -10 -16 -10q-14 0 -17 8q-8 120 -8 293q0 68 2 207t2 209q-28 61 -39 127q-10 34 -40 118.5t-40 128.5q-7 28 -18.5 56.5t-16.5 60.5q0 3 -3 20t-3 25q-2 6 -2 27zM68 1368q0 12 98 56.5t129 52.5q14 0 14 -11 q0 -8 -14 -14l-26 -12q-170 -80 -189 -80q-12 0 -12 8z" />
<glyph unicode="&#xde;" horiz-adv-x="419" d="M53 524q0 139 10 254q1 37 2 86.5t2 85.5t1 68q0 116 4 252q2 14 14 14q16 0 16 -10q0 -26 1 -109t1 -135q12 0 36 1t36 1q55 0 95.5 -14t72.5 -55q51 -61 51 -181q0 -30 -4 -84q-8 -82 -24 -159q-20 -91 -54.5 -119.5t-136.5 -46.5q-29 -4 -86 -4q2 -66 2 -189 q0 -117 2 -174q-2 -9 -16 -12q-17 0 -17 10q-2 82 -2 260q0 83 -3 130t-3 130zM86 549q0 -41 2 -87.5t2 -64.5q47 0 76.5 2t66.5 11.5t62 27.5q23 16 40 73.5t17 104.5q10 118 10 154q0 35 -1.5 56.5t-8 50t-18.5 48t-35.5 39.5t-56.5 35q-9 0 -29.5 2.5t-30.5 2.5 q-14 0 -41 -1.5t-39 -1.5v-36q0 -71 -8 -208t-8 -208z" />
<glyph unicode="&#xe0;" d="M10 -2q7 27 13 68q63 300 111 594t59 350q6 29 13.5 85t16.5 99.5t25 79.5q3 6 12 12t14 6q8 0 13.5 -18t9.5 -48.5t4 -31.5l43 -338q10 -86 53 -407q4 -27 17.5 -89.5t17.5 -91.5q4 -27 24.5 -121.5t22.5 -146.5q0 -8 -12 -8q-6 0 -12 6q-3 19 -18.5 111t-26.5 141 q-3 10 -24.5 132t-25.5 138q-46 0 -111 -4t-112 -4l-84 -436q-16 -72 -20 -82q-6 -6 -13 -6q-10 0 -10 10zM127 1470q0 11 14 11q3 -1 42 -20.5t69 -28.5q41 -14 77 -36t36 -30t-13 -8q-37 8 -131 54t-94 58zM139 541q37 0 108 3t109 3q0 27 -5 58t-5 59q-26 145 -72 534 q-6 48 -6 62q-7 -17 -14 -47t-16 -78t-13 -66q-17 -83 -40.5 -249.5t-39.5 -248.5z" />
<glyph unicode="&#xe1;" d="M10 -2q7 27 13 68q63 300 111 594t59 350q6 29 13.5 85t16.5 99.5t25 79.5q3 6 12 12t14 6q8 0 13.5 -18t9.5 -48.5t4 -31.5l43 -338q10 -86 53 -407q4 -27 17.5 -89.5t17.5 -91.5q4 -27 24.5 -121.5t22.5 -146.5q0 -8 -12 -8q-6 0 -12 6q-3 19 -18.5 111t-26.5 141 q-3 10 -24.5 132t-25.5 138q-46 0 -111 -4t-112 -4l-84 -436q-16 -72 -20 -82q-6 -6 -13 -6q-10 0 -10 10zM125 1368q0 12 98 56.5t129 52.5q15 0 15 -11q0 -8 -15 -14l-26 -12q-170 -80 -189 -80q-12 0 -12 8zM139 541q37 0 108 3t109 3q0 27 -5 58t-5 59q-26 145 -72 534 q-6 48 -6 62q-7 -17 -14 -47t-16 -78t-13 -66q-17 -83 -40.5 -249.5t-39.5 -248.5z" />
<glyph unicode="&#xe2;" d="M10 -2q7 27 13 68q63 300 111 594t59 350q6 29 13.5 85t16.5 99.5t25 79.5q3 6 12 12t14 6q8 0 13.5 -18t9.5 -48.5t4 -31.5l43 -338q10 -86 53 -407q4 -27 17.5 -89.5t17.5 -91.5q4 -27 24.5 -121.5t22.5 -146.5q0 -8 -12 -8q-6 0 -12 6q-3 19 -18.5 111t-26.5 141 q-3 10 -24.5 132t-25.5 138q-46 0 -111 -4t-112 -4l-84 -436q-16 -72 -20 -82q-6 -6 -13 -6q-10 0 -10 10zM102 1368q0 14 31.5 47.5t44.5 38.5q1 2 8.5 12.5t13 17.5t13.5 16t16 13.5t15 4.5q19 0 82 -67t63 -79q0 -14 -14 -14q-11 0 -15 4q-15 16 -51.5 59t-64.5 68 q-20 -32 -113 -125q-6 -6 -18 -6q-4 0 -7.5 3.5t-3.5 6.5zM139 541q37 0 108 3t109 3q0 27 -5 58t-5 59q-26 145 -72 534q-6 48 -6 62q-7 -17 -14 -47t-16 -78t-13 -66q-17 -83 -40.5 -249.5t-39.5 -248.5z" />
<glyph unicode="&#xe3;" d="M10 -2q7 27 13 68q63 300 111 594t59 350q6 29 13.5 85t16.5 99.5t25 79.5q3 6 12 12t14 6q8 0 13.5 -18t9.5 -48.5t4 -31.5l43 -338q10 -86 53 -407q4 -27 17.5 -89.5t17.5 -91.5q4 -27 24.5 -121.5t22.5 -146.5q0 -8 -12 -8q-6 0 -12 6q-3 19 -18.5 111t-26.5 141 q-3 10 -24.5 132t-25.5 138q-46 0 -111 -4t-112 -4l-84 -436q-16 -72 -20 -82q-6 -6 -13 -6q-10 0 -10 10zM94 1405q0 24 26 42.5t50 18.5q27 0 70 -30t45 -31q12 -6 22 -6q15 0 31 4q8 4 16 10t12 10l3 4q7 13 18 13q10 0 10 -13q0 -19 -28 -38q-31 -19 -58 -19 q-18 0 -33.5 7.5t-38.5 24t-36 23.5q-18 11 -33 11q-34 0 -47 -33q0 -12 -14 -12q-15 0 -15 14zM139 541q37 0 108 3t109 3q0 27 -5 58t-5 59q-26 145 -72 534q-6 48 -6 62q-7 -17 -14 -47t-16 -78t-13 -66q-17 -83 -40.5 -249.5t-39.5 -248.5z" />
<glyph unicode="&#xe4;" d="M10 -2q7 27 13 68q63 300 111 594t59 350q6 29 13.5 85t16.5 99.5t25 79.5q3 6 12 12t14 6q8 0 13.5 -18t9.5 -48.5t4 -31.5l43 -338q10 -86 53 -407q4 -27 17.5 -89.5t17.5 -91.5q4 -27 24.5 -121.5t22.5 -146.5q0 -8 -12 -8q-6 0 -12 6q-3 19 -18.5 111t-26.5 141 q-3 10 -24.5 132t-25.5 138q-46 0 -111 -4t-112 -4l-84 -436q-16 -72 -20 -82q-6 -6 -13 -6q-10 0 -10 10zM139 541q37 0 108 3t109 3q0 27 -5 58t-5 59q-26 145 -72 534q-6 48 -6 62q-7 -17 -14 -47t-16 -78t-13 -66q-17 -83 -40.5 -249.5t-39.5 -248.5zM147 1380 q0 10 7.5 16.5t15.5 6.5q23 0 23 -21q0 -9 -7.5 -15.5t-15.5 -6.5t-15.5 6.5t-7.5 13.5zM299 1380q0 8 6.5 15.5t13.5 7.5q10 0 16.5 -7.5t6.5 -15.5q0 -22 -20 -22q-9 0 -16 7t-7 15z" />
<glyph unicode="&#xe5;" d="M10 -2q7 27 13 68q63 300 111 594t59 350q6 29 13.5 85t16.5 99.5t25 79.5q3 6 12 12t14 6q8 0 13.5 -18t9.5 -48.5t4 -31.5l43 -338q10 -86 53 -407q4 -27 17.5 -89.5t17.5 -91.5q4 -27 24.5 -121.5t22.5 -146.5q0 -8 -12 -8q-6 0 -12 6q-3 19 -18.5 111t-26.5 141 q-3 10 -24.5 132t-25.5 138q-46 0 -111 -4t-112 -4l-84 -436q-16 -72 -20 -82q-6 -6 -13 -6q-10 0 -10 10zM139 541q37 0 108 3t109 3q0 27 -5 58t-5 59q-26 145 -72 534q-6 48 -6 62q-7 -17 -14 -47t-16 -78t-13 -66q-17 -83 -40.5 -249.5t-39.5 -248.5zM154 1462 q0 55 31.5 84t76.5 29q46 0 80.5 -30t34.5 -83q0 -51 -32 -79.5t-75 -28.5t-76 27.5t-40 80.5zM182 1464q7 -43 29.5 -65.5t50.5 -22.5q31 0 55.5 23.5t24.5 60.5q0 32 -20 68q-27 24 -62 24q-32 0 -55 -24t-23 -64z" />
<glyph unicode="&#xe6;" horiz-adv-x="837" d="M10 -4q36 107 81.5 222t105 257t90.5 219q109 275 207 568q2 8 7 14t11 6q38 0 101.5 -1t95.5 -1q36 0 54.5 1t35.5 1q14 0 14 -10q0 -15 -16 -15q-8 0 -34 -1t-65 -1q-19 0 -78 -1t-98 -1q13 -203 13 -469v-135q112 0 253 10q11 0 11 -8q0 -7 -6.5 -12.5t-16.5 -5.5 q-111 -10 -239 -10q-11 -226 -15 -592q50 -1 84.5 -2t48.5 -1.5t21 -0.5q28 0 119 6q14 0 14 -15q0 -5 -4.5 -10.5t-11.5 -5.5q-83 -6 -103 -6q-98 0 -190 6q-6 0 -6 8q1 96 5 284.5t5 280.5q-18 -2 -49 -2q-14 0 -45.5 1t-53.5 1h-82q-18 -43 -60 -141.5t-65 -153t-55 -137 t-55 -153.5q-6 -6 -14 -6q-15 0 -15 12zM285 600q55 2 123 2q27 0 56 -1t40 -1q2 53 2 162q0 231 -8 416q-59 -180 -174 -482z" />
<glyph unicode="&#xe7;" horiz-adv-x="440" d="M53 254q0 85 2 250.5t2 251.5q0 14 -1 87.5t-1 119.5q0 173 19 231q13 44 51.5 67t87.5 23q95 0 154 -59q34 -34 34 -125q0 -14 -1 -39.5t-1 -34.5q0 -4 -6 -8t-12 -4q-12 0 -12 8q0 13 1 37t1 35q0 69 -27 108q-60 51 -127 51q-72 0 -119 -59q-8 -29 -10 -128.5 t-2 -481.5q0 -53 -3 -162t-3 -164v-53q0 -78 22 -119q18 -27 60 -47.5t82 -20.5q39 0 67.5 37.5t41 94t17.5 100.5t5 78q0 45 2 67.5t5.5 27.5t10.5 5q6 0 7 -4t3 -25q0 -69 -2 -107.5t-10.5 -98t-30 -104.5t-57.5 -79q-20 -20 -57 -20q-42 0 -90 23t-70 50q-29 45 -29 87 q0 15 -2 50t-2 54zM123 -213q0 14 10 14q9 0 16.5 -8.5t13.5 -18t20.5 -18t35.5 -8.5q15 0 37.5 14t22.5 43q0 53 -43 70q-6 2 -27 2q-14 0 -20.5 3.5t-6.5 17.5q0 10 8.5 44.5t8.5 59.5q2 6 16 6q12 0 12 -14q0 -19 -3 -34.5t-8.5 -32.5t-6.5 -23q43 0 71.5 -30.5 t28.5 -66.5q0 -29 -20 -49q-34 -39 -72 -39q-18 0 -47 11q-12 5 -29.5 25t-17.5 32z" />
<glyph unicode="&#xe8;" horiz-adv-x="458" d="M53 10q1 49 7 327.5t6 424.5q0 284 -13 500q2 7 8.5 13.5t14.5 6.5q36 0 98 -1t94 -1q36 0 85.5 1t66.5 1q14 0 14 -10q0 -15 -16 -15q-8 0 -64.5 -1t-95.5 -1q-19 0 -78 -1t-98 -1q12 -187 12 -469v-135q175 0 316 10q10 0 10 -8q0 -7 -6.5 -12.5t-16.5 -5.5 q-111 -10 -303 -10q0 -9 -1 -27t-1 -27q-9 -277 -12 -538q50 -1 85 -2t49.5 -1.5t21.5 -0.5q88 0 180 6q14 0 14 -15q0 -5 -4.5 -10.5t-11.5 -5.5q-82 -6 -164 -6q-100 0 -191 6q-6 0 -6 8zM94 1470q0 11 15 11q3 -1 41.5 -20.5t68.5 -28.5q41 -14 77 -36t36 -30t-13 -8 q-37 8 -131 54t-94 58z" />
<glyph unicode="&#xe9;" horiz-adv-x="458" d="M53 10q1 49 7 327.5t6 424.5q0 284 -13 500q2 7 8.5 13.5t14.5 6.5q36 0 98 -1t94 -1q36 0 85.5 1t66.5 1q14 0 14 -10q0 -15 -16 -15q-8 0 -64.5 -1t-95.5 -1q-19 0 -78 -1t-98 -1q12 -187 12 -469v-135q175 0 316 10q10 0 10 -8q0 -7 -6.5 -12.5t-16.5 -5.5 q-111 -10 -303 -10q0 -9 -1 -27t-1 -27q-9 -277 -12 -538q50 -1 85 -2t49.5 -1.5t21.5 -0.5q88 0 180 6q14 0 14 -15q0 -5 -4.5 -10.5t-11.5 -5.5q-82 -6 -164 -6q-100 0 -191 6q-6 0 -6 8zM92 1368q0 12 98 56.5t129 52.5q15 0 15 -11q0 -8 -15 -14l-26 -12 q-170 -80 -189 -80q-12 0 -12 8z" />
<glyph unicode="&#xea;" horiz-adv-x="458" d="M53 10q1 49 7 327.5t6 424.5q0 284 -13 500q2 7 8.5 13.5t14.5 6.5q36 0 98 -1t94 -1q36 0 85.5 1t66.5 1q14 0 14 -10q0 -15 -16 -15q-8 0 -64.5 -1t-95.5 -1q-19 0 -78 -1t-98 -1q12 -187 12 -469v-135q175 0 316 10q10 0 10 -8q0 -7 -6.5 -12.5t-16.5 -5.5 q-111 -10 -303 -10q0 -9 -1 -27t-1 -27q-9 -277 -12 -538q50 -1 85 -2t49.5 -1.5t21.5 -0.5q88 0 180 6q14 0 14 -15q0 -5 -4.5 -10.5t-11.5 -5.5q-82 -6 -164 -6q-100 0 -191 6q-6 0 -6 8zM70 1368q0 14 31 47.5t44 38.5q1 2 8.5 12.5t13 17.5t13.5 16t16 13.5t15 4.5 q19 0 82 -67t63 -79q0 -14 -14 -14q-10 0 -14 4q-14 15 -51.5 58.5t-65.5 68.5q-20 -32 -113 -125q-6 -6 -18 -6q-10 0 -10 10z" />
<glyph unicode="&#xeb;" horiz-adv-x="458" d="M53 10q1 49 7 327.5t6 424.5q0 284 -13 500q2 7 8.5 13.5t14.5 6.5q36 0 98 -1t94 -1q36 0 85.5 1t66.5 1q14 0 14 -10q0 -15 -16 -15q-8 0 -64.5 -1t-95.5 -1q-19 0 -78 -1t-98 -1q12 -187 12 -469v-135q175 0 316 10q10 0 10 -8q0 -7 -6.5 -12.5t-16.5 -5.5 q-111 -10 -303 -10q0 -9 -1 -27t-1 -27q-9 -277 -12 -538q50 -1 85 -2t49.5 -1.5t21.5 -0.5q88 0 180 6q14 0 14 -15q0 -5 -4.5 -10.5t-11.5 -5.5q-82 -6 -164 -6q-100 0 -191 6q-6 0 -6 8zM117 1380q0 10 7 16.5t15 6.5q23 0 23 -21q0 -9 -7.5 -15.5t-15.5 -6.5t-15 6.5 t-7 13.5zM268 1380q0 8 7 15.5t14 7.5q10 0 16 -7.5t6 -15.5q0 -22 -20 -22q-9 0 -16 7t-7 15z" />
<glyph unicode="&#xec;" horiz-adv-x="188" d="M-25 1470q0 11 15 11q3 -1 41.5 -20.5t68.5 -28.5q41 -14 77 -36t36 -30t-12 -8q-37 8 -131.5 54t-94.5 58zM70 1284q0 10 14 10t18 -8q0 -357 9 -711q1 -39 2.5 -107.5t2.5 -125.5t1 -109q0 -116 -6 -233q-3 -8 -19 -8t-16 10q4 80 4 246q0 54 -2 161.5t-2 163.5 q0 119 -3 356t-3 355z" />
<glyph unicode="&#xed;" horiz-adv-x="180" d="M-25 1368q0 12 98.5 56.5t129.5 52.5q14 0 14 -11q0 -8 -14 -14l-26 -12q-170 -80 -189 -80q-13 0 -13 8zM72 1284q0 10 14 10t18 -8q0 -357 9 -711q1 -39 2.5 -107.5t2.5 -125.5t1 -109q0 -116 -6 -233q-3 -8 -19 -8t-16 10q4 80 4 246q0 54 -2 161.5t-2 163.5 q0 119 -3 356t-3 355z" />
<glyph unicode="&#xee;" horiz-adv-x="192" d="M-47 1368q0 14 31.5 47.5t44.5 38.5q0 1 11 16t17.5 23t17 16.5t19.5 8.5q19 0 82.5 -67t63.5 -79q0 -14 -15 -14q-10 0 -14 4q-14 15 -51.5 58.5t-65.5 68.5q-22 -35 -112 -125q-6 -6 -19 -6q-10 0 -10 10zM70 1284q0 10 14 10t18 -8q0 -357 9 -711q1 -39 2.5 -107.5 t2.5 -125.5t1 -109q0 -116 -6 -233q-3 -8 -19 -8t-16 10q4 80 4 246q0 54 -2 161.5t-2 163.5q0 119 -3 356t-3 355z" />
<glyph unicode="&#xef;" horiz-adv-x="194" d="M0 1380q0 10 7.5 16.5t15.5 6.5q22 0 22 -21q0 -9 -7 -15.5t-15 -6.5t-15.5 6.5t-7.5 13.5zM72 1284q0 10 14 10t18 -8q0 -357 9 -711q1 -39 2.5 -107.5t2.5 -125.5t1 -109q0 -116 -6 -233q-3 -8 -19 -8t-16 10q4 80 4 246q0 54 -2 161.5t-2 163.5q0 119 -3 356t-3 355z M152 1380q0 8 6.5 15.5t13.5 7.5q10 0 16.5 -7.5t6.5 -15.5q0 -22 -21 -22q-9 0 -15.5 7t-6.5 15z" />
<glyph unicode="&#xf0;" horiz-adv-x="499" d="M25 637q0 16 10 16h39v86q0 341 -4 529q0 16 39 16q7 0 30.5 -1t40.5 -1q84 0 127 -39q19 -16 33.5 -34t25.5 -42.5t18 -40.5t13.5 -48.5t8.5 -45t7.5 -50.5t6.5 -46q26 -181 26 -358q0 -82 -6 -168q-1 -12 -3 -46t-3.5 -63t-1.5 -47q0 -101 -84 -179.5t-180 -78.5 q-12 0 -40 2t-42 2h-14q-6 0 -6 6q4 211 8 617q-12 -2 -41 -2q-8 8 -8 16zM92 27h23q10 0 25.5 -1t23.5 -1q85 0 162 75t80 158q10 322 10 354q0 72 -25 322q-6 52 -11.5 85t-17.5 79.5t-32.5 78t-48.5 48.5q-45 28 -119 28h-66q6 -267 6 -534v-66q23 0 39.5 1.5t55.5 2.5 q23 0 42.5 -1t39.5 -1q6 0 6 -16q0 -9 -9 -12q-47 -2 -174 -2q-4 -398 -10 -598z" />
<glyph unicode="&#xf1;" horiz-adv-x="526" d="M53 801q0 59 6 180.5t7 169.5q0 16 2 49t2 51q0 8 -0.5 14t-0.5 8.5t-0.5 5t-0.5 3.5q3 8 16 8q11 0 18 -12q17 -67 55 -185.5t52 -166.5q92 -332 158 -662q24 -113 39 -160q0 51 -3.5 290t-3.5 368q0 307 15 512q3 6 14 6q13 0 16 -8q-8 -151 -8 -336q0 -85 2 -263.5 t2 -262.5q0 -69 -1 -205t-1 -203q0 -8 -16 -8q-9 0 -16 20q-54 138 -74 248q-86 429 -156 662q-15 48 -44 137t-36 110v-22q-6 -333 -6 -350q0 -134 3 -338.5t3 -290.5q0 -111 -2 -166q-2 -10 -16 -10q-15 0 -15 12q5 298 5 356q0 111 -7.5 248.5t-7.5 190.5zM100 1405 q0 24 26 42.5t50 18.5q27 0 70 -30t45 -31q12 -6 22 -6q15 0 31 4q8 4 16 10t12 10l3 4q7 13 18 13q10 0 10 -13q0 -19 -28 -38q-31 -19 -58 -19q-18 0 -33.5 7.5t-38.5 24t-36 23.5q-18 11 -33 11q-34 0 -47 -33q0 -12 -14 -12q-15 0 -15 14z" />
<glyph unicode="&#xf2;" horiz-adv-x="497" d="M25 653q0 184 34 357q8 45 21.5 88.5t36.5 90.5t58.5 76t78.5 29q28 0 52 -15t39 -33.5t30.5 -53t21.5 -54t17 -55.5q59 -191 59 -419q0 -142 -31 -365q-5 -35 -10 -59.5t-15 -65t-24 -69t-33.5 -57t-47.5 -43.5t-62 -15q-25 0 -47 11t-37.5 24.5t-30.5 41t-23.5 45 t-19 52.5t-13.5 48t-11 46q-43 191 -43 395zM59 649q0 -196 41 -389q10 -42 16.5 -66.5t21 -62.5t36 -64.5t49.5 -41.5q14 -7 39 -7q1 0 5.5 2t11 4t10.5 3q55 46 79.5 112t39.5 164q28 173 28 342q0 163 -26 313q-6 31 -12.5 61.5t-21 78t-31 82.5t-40.5 62t-51 30 q-39 -6 -68.5 -34t-47.5 -74t-27 -78.5t-17 -77.5q-35 -181 -35 -359zM131 1470q0 11 14 11q3 -1 42 -20.5t69 -28.5q41 -14 77 -36t36 -30t-13 -8q-37 8 -131 54t-94 58z" />
<glyph unicode="&#xf3;" horiz-adv-x="497" d="M25 653q0 184 34 357q8 45 21.5 88.5t36.5 90.5t58.5 76t78.5 29q28 0 52 -15t39 -33.5t30.5 -53t21.5 -54t17 -55.5q59 -191 59 -419q0 -142 -31 -365q-5 -35 -10 -59.5t-15 -65t-24 -69t-33.5 -57t-47.5 -43.5t-62 -15q-25 0 -47 11t-37.5 24.5t-30.5 41t-23.5 45 t-19 52.5t-13.5 48t-11 46q-43 191 -43 395zM59 649q0 -196 41 -389q10 -42 16.5 -66.5t21 -62.5t36 -64.5t49.5 -41.5q14 -7 39 -7q1 0 5.5 2t11 4t10.5 3q55 46 79.5 112t39.5 164q28 173 28 342q0 163 -26 313q-6 31 -12.5 61.5t-21 78t-31 82.5t-40.5 62t-51 30 q-39 -6 -68.5 -34t-47.5 -74t-27 -78.5t-17 -77.5q-35 -181 -35 -359zM129 1368q0 12 98 56.5t129 52.5q15 0 15 -11q0 -8 -15 -14l-26 -12q-170 -80 -189 -80q-12 0 -12 8z" />
<glyph unicode="&#xf4;" horiz-adv-x="497" d="M25 653q0 184 34 357q8 45 21.5 88.5t36.5 90.5t58.5 76t78.5 29q28 0 52 -15t39 -33.5t30.5 -53t21.5 -54t17 -55.5q59 -191 59 -419q0 -142 -31 -365q-5 -35 -10 -59.5t-15 -65t-24 -69t-33.5 -57t-47.5 -43.5t-62 -15q-25 0 -47 11t-37.5 24.5t-30.5 41t-23.5 45 t-19 52.5t-13.5 48t-11 46q-43 191 -43 395zM59 649q0 -196 41 -389q10 -42 16.5 -66.5t21 -62.5t36 -64.5t49.5 -41.5q14 -7 39 -7q1 0 5.5 2t11 4t10.5 3q55 46 79.5 112t39.5 164q28 173 28 342q0 163 -26 313q-6 31 -12.5 61.5t-21 78t-31 82.5t-40.5 62t-51 30 q-39 -6 -68.5 -34t-47.5 -74t-27 -78.5t-17 -77.5q-35 -181 -35 -359zM106 1368q0 14 31.5 47.5t44.5 38.5q1 2 8.5 12.5t13 17.5t13.5 16t16 13.5t15 4.5q19 0 82 -67t63 -79q0 -14 -14 -14q-10 0 -14 4q-14 15 -51.5 58.5t-65.5 68.5q-20 -32 -113 -125q-6 -6 -18 -6 q-4 0 -7.5 3.5t-3.5 6.5z" />
<glyph unicode="&#xf5;" horiz-adv-x="497" d="M25 653q0 184 34 357q8 45 21.5 88.5t36.5 90.5t58.5 76t78.5 29q28 0 52 -15t39 -33.5t30.5 -53t21.5 -54t17 -55.5q59 -191 59 -419q0 -142 -31 -365q-5 -35 -10 -59.5t-15 -65t-24 -69t-33.5 -57t-47.5 -43.5t-62 -15q-25 0 -47 11t-37.5 24.5t-30.5 41t-23.5 45 t-19 52.5t-13.5 48t-11 46q-43 191 -43 395zM59 649q0 -196 41 -389q10 -42 16.5 -66.5t21 -62.5t36 -64.5t49.5 -41.5q14 -7 39 -7q1 0 5.5 2t11 4t10.5 3q55 46 79.5 112t39.5 164q28 173 28 342q0 163 -26 313q-6 31 -12.5 61.5t-21 78t-31 82.5t-40.5 62t-51 30 q-39 -6 -68.5 -34t-47.5 -74t-27 -78.5t-17 -77.5q-35 -181 -35 -359zM98 1405q0 24 26 42.5t50 18.5q27 0 70 -30t45 -31q12 -6 22 -6q15 0 31 4q8 4 16 10t12 10l3 4q7 13 18 13q10 0 10 -13q0 -19 -28 -38q-31 -19 -58 -19q-18 0 -33.5 7.5t-38.5 24t-36 23.5 q-18 11 -33 11q-34 0 -47 -33q0 -12 -14 -12q-15 0 -15 14z" />
<glyph unicode="&#xf6;" horiz-adv-x="497" d="M25 653q0 184 34 357q8 45 21.5 88.5t36.5 90.5t58.5 76t78.5 29q28 0 52 -15t39 -33.5t30.5 -53t21.5 -54t17 -55.5q59 -191 59 -419q0 -142 -31 -365q-5 -35 -10 -59.5t-15 -65t-24 -69t-33.5 -57t-47.5 -43.5t-62 -15q-25 0 -47 11t-37.5 24.5t-30.5 41t-23.5 45 t-19 52.5t-13.5 48t-11 46q-43 191 -43 395zM59 649q0 -196 41 -389q10 -42 16.5 -66.5t21 -62.5t36 -64.5t49.5 -41.5q14 -7 39 -7q1 0 5.5 2t11 4t10.5 3q55 46 79.5 112t39.5 164q28 173 28 342q0 163 -26 313q-6 31 -12.5 61.5t-21 78t-31 82.5t-40.5 62t-51 30 q-39 -6 -68.5 -34t-47.5 -74t-27 -78.5t-17 -77.5q-35 -181 -35 -359zM152 1380q0 10 7 16.5t15 6.5q23 0 23 -21q0 -9 -7.5 -15.5t-15.5 -6.5t-15 6.5t-7 13.5zM303 1380q0 8 7 15.5t14 7.5q10 0 16 -7.5t6 -15.5q0 -22 -20 -22q-9 0 -16 7t-7 15z" />
<glyph unicode="&#xf8;" horiz-adv-x="497" d="M25 655q0 181 34 351q50 282 195 282q70 0 123 -112l49 118q18 0 18 -14l-49 -152q78 -238 78 -462q0 -140 -31 -359q-6 -35 -10.5 -59.5t-14.5 -65.5t-24 -69.5t-33.5 -57.5t-47.5 -44t-62 -15q-85 0 -137 121q-14 -58 -19 -99q-1 -2 -2 -7t-2 -7t-5 -4t-11 -2 q-1 0 -4 1q-11 3 -11 11q10 62 35 156q-12 34 -26 100q-43 188 -43 389zM59 651q0 -306 52 -422q14 71 47 183q12 41 39 120.5t39 118.5q24 81 62 240t62 239q-46 126 -106 134q-39 -5 -68.5 -32.5t-47.5 -73t-27 -77.5t-17 -77q-35 -178 -35 -353zM125 172q35 -112 98 -143 q12 -6 39 -6q32 0 59.5 34.5t45 89.5t26.5 91t15 71q28 173 28 336q0 161 -26 311q-7 42 -29 117q-40 -145 -69.5 -269t-39.5 -155q-9 -31 -66.5 -207t-80.5 -270z" />
<glyph unicode="&#xf9;" horiz-adv-x="505" d="M53 1049v231q0 6 5 11t10 5q11 0 16 -14v-446q0 -51 5 -155.5t5 -156.5v-69q0 -29 -1 -93t-1 -96q0 -173 80 -229q20 -14 66 -14q57 0 93 11.5t54.5 38.5t24.5 59.5t6 84.5q0 37 1 111t1 112q0 300 -12 832q0 10 16 10q10 0 14 -8q15 -353 15 -574q0 -39 1 -127t1 -127 t-1 -116.5t-1 -116.5q0 -141 -54 -178q-27 -18 -74 -30.5t-92 -12.5q-63 0 -90 24q-26 24 -37 43.5t-24 59.5q-21 64 -21 166q0 27 1 79t1 76q0 117 -4 320t-4 289zM135 1470q0 11 15 11q3 -1 41.5 -20.5t68.5 -28.5q41 -14 77 -36t36 -30t-13 -8q-37 8 -131 54t-94 58z" />
<glyph unicode="&#xfa;" horiz-adv-x="505" d="M53 1049v231q0 6 5 11t10 5q11 0 16 -14v-446q0 -51 5 -155.5t5 -156.5v-69q0 -29 -1 -93t-1 -96q0 -173 80 -229q20 -14 66 -14q57 0 93 11.5t54.5 38.5t24.5 59.5t6 84.5q0 37 1 111t1 112q0 300 -12 832q0 10 16 10q10 0 14 -8q15 -353 15 -574q0 -39 1 -127t1 -127 t-1 -116.5t-1 -116.5q0 -141 -54 -178q-27 -18 -74 -30.5t-92 -12.5q-63 0 -90 24q-26 24 -37 43.5t-24 59.5q-21 64 -21 166q0 27 1 79t1 76q0 117 -4 320t-4 289zM133 1368q0 12 98 56.5t129 52.5q15 0 15 -11q0 -8 -15 -14l-26 -12q-170 -80 -189 -80q-12 0 -12 8z" />
<glyph unicode="&#xfb;" horiz-adv-x="505" d="M53 1049v231q0 6 5 11t10 5q11 0 16 -14v-446q0 -51 5 -155.5t5 -156.5v-69q0 -29 -1 -93t-1 -96q0 -173 80 -229q20 -14 66 -14q57 0 93 11.5t54.5 38.5t24.5 59.5t6 84.5q0 37 1 111t1 112q0 300 -12 832q0 10 16 10q10 0 14 -8q15 -353 15 -574q0 -39 1 -127t1 -127 t-1 -116.5t-1 -116.5q0 -141 -54 -178q-27 -18 -74 -30.5t-92 -12.5q-63 0 -90 24q-26 24 -37 43.5t-24 59.5q-21 64 -21 166q0 27 1 79t1 76q0 117 -4 320t-4 289zM111 1368q0 14 31 47.5t44 38.5q1 2 8.5 12.5t13 17.5t13.5 16t16 13.5t15 4.5q19 0 82 -67t63 -79 q0 -14 -14 -14q-10 0 -14 4q-14 15 -51.5 58.5t-65.5 68.5q-20 -32 -113 -125q-6 -6 -18 -6q-10 0 -10 10z" />
<glyph unicode="&#xfc;" horiz-adv-x="505" d="M53 1049v231q0 6 5 11t10 5q11 0 16 -14v-446q0 -51 5 -155.5t5 -156.5v-69q0 -29 -1 -93t-1 -96q0 -173 80 -229q20 -14 66 -14q57 0 93 11.5t54.5 38.5t24.5 59.5t6 84.5q0 37 1 111t1 112q0 300 -12 832q0 10 16 10q10 0 14 -8q15 -353 15 -574q0 -39 1 -127t1 -127 t-1 -116.5t-1 -116.5q0 -141 -54 -178q-27 -18 -74 -30.5t-92 -12.5q-63 0 -90 24q-26 24 -37 43.5t-24 59.5q-21 64 -21 166q0 27 1 79t1 76q0 117 -4 320t-4 289zM156 1380q0 10 7 16.5t15 6.5q23 0 23 -21q0 -9 -7.5 -15.5t-15.5 -6.5t-15 6.5t-7 13.5zM307 1380 q0 8 7 15.5t14 7.5q10 0 16 -7.5t6 -15.5q0 -22 -20 -22q-9 0 -16 7t-7 15z" />
<glyph unicode="&#xfd;" horiz-adv-x="387" d="M10 1274q0 4 5.5 8t11.5 4q9 0 14 -10q0 -60 27 -156.5t69 -215t53 -156.5q4 13 47.5 154.5t61.5 213.5q12 57 29 113l14 41l2 8q0 10 16 10q12 0 17 -10q0 -13 -5 -29.5t-14 -38.5t-12 -30q-14 -56 -43.5 -156.5t-40.5 -140.5q-2 -7 -9.5 -36t-13.5 -51.5t-15.5 -48.5 t-18.5 -40q0 -66 -2 -201t-2 -203q0 -176 8 -299q-3 -10 -16 -10q-14 0 -17 8q-8 120 -8 293q0 68 2 207t2 209q-28 61 -39 127q-10 34 -40 118.5t-40 128.5q-7 28 -18.5 56.5t-16.5 60.5q0 3 -3 20t-3 25q-2 6 -2 27zM68 1368q0 12 98 56.5t129 52.5q14 0 14 -11 q0 -8 -14 -14l-26 -12q-170 -80 -189 -80q-12 0 -12 8z" />
<glyph unicode="&#xfe;" horiz-adv-x="419" d="M53 524q0 139 10 254q1 37 2 86.5t2 85.5t1 68q0 116 4 252q2 14 14 14q16 0 16 -10q0 -26 1 -109t1 -135q12 0 36 1t36 1q55 0 95.5 -14t72.5 -55q51 -61 51 -181q0 -30 -4 -84q-8 -82 -24 -159q-20 -91 -54.5 -119.5t-136.5 -46.5q-29 -4 -86 -4q2 -66 2 -189 q0 -117 2 -174q-2 -9 -16 -12q-17 0 -17 10q-2 82 -2 260q0 83 -3 130t-3 130zM86 549q0 -41 2 -87.5t2 -64.5q47 0 76.5 2t66.5 11.5t62 27.5q23 16 40 73.5t17 104.5q10 118 10 154q0 35 -1.5 56.5t-8 50t-18.5 48t-35.5 39.5t-56.5 35q-9 0 -29.5 2.5t-30.5 2.5 q-14 0 -41 -1.5t-39 -1.5v-36q0 -71 -8 -208t-8 -208z" />
<glyph unicode="&#xff;" horiz-adv-x="387" d="M10 1274q0 4 5.5 8t11.5 4q9 0 14 -10q0 -60 27 -156.5t69 -215t53 -156.5q4 13 47.5 154.5t61.5 213.5q12 57 29 113l14 41l2 8q0 10 16 10q12 0 17 -10q0 -13 -5 -29.5t-14 -38.5t-12 -30q-14 -56 -43.5 -156.5t-40.5 -140.5q-2 -7 -9.5 -36t-13.5 -51.5t-15.5 -48.5 t-18.5 -40q0 -66 -2 -201t-2 -203q0 -176 8 -299q-3 -10 -16 -10q-14 0 -17 8q-8 120 -8 293q0 68 2 207t2 209q-28 61 -39 127q-10 34 -40 118.5t-40 128.5q-7 28 -18.5 56.5t-16.5 60.5q0 3 -3 20t-3 25q-2 6 -2 27zM92 1380q0 10 7.5 16.5t15.5 6.5q22 0 22 -21 q0 -9 -7 -15.5t-15 -6.5t-15.5 6.5t-7.5 13.5zM244 1380q0 8 6.5 15.5t13.5 7.5q10 0 16.5 -7.5t6.5 -15.5q0 -22 -21 -22q-9 0 -15.5 7t-6.5 15z" />
<glyph unicode="&#x152;" horiz-adv-x="784" d="M25 721q0 197 61 336q102 237 229 237q49 0 78 -14q2 2 8 2q35 0 98 -1t95 -1q36 0 85 1t66 1q15 0 15 -10q0 -15 -17 -15q-8 0 -64 -1t-95 -1q-19 0 -78 -1t-98 -1q12 -187 12 -469v-135q174 0 315 10q10 0 10 -8q0 -7 -6 -12.5t-16 -5.5q-111 -10 -303 -10q0 -9 -1 -27 t-1 -27q-9 -277 -12 -538q50 -1 85 -2t49 -1.5t21 -0.5q89 0 180 6q15 0 15 -15q0 -5 -5 -10.5t-12 -5.5q-83 -6 -164 -6q-66 0 -180 4q-28 -25 -78 -25q-69 0 -123 62.5t-84.5 151t-51 198t-27 191.5t-6.5 143zM55 682q0 -49 7.5 -125t26.5 -174.5t47 -182t75 -141 t104 -57.5q51 0 64 18q1 84 4.5 235.5t5.5 275t2 231.5q0 301 -12 500q-18 8 -64 8q-44 0 -85.5 -35.5t-70 -89t-47.5 -103.5t-28 -90q-29 -139 -29 -270z" />
<glyph unicode="&#x153;" horiz-adv-x="722" d="M25 721q0 197 61 336q102 237 229 237q49 0 78 -14q2 2 8 2q35 0 98 -1t95 -1q36 0 54.5 1t35.5 1q14 0 14 -10q0 -15 -16 -15q-8 0 -33.5 -1t-64.5 -1q-19 0 -78 -1t-98 -1q12 -187 12 -469v-135q113 0 254 10q10 0 10 -8q0 -7 -6 -12.5t-16 -5.5q-111 -10 -242 -10 q0 -9 -1 -27t-1 -27q-9 -277 -12 -538q50 -1 85 -2t49 -1.5t21 -0.5q27 0 119 6q14 0 14 -15q0 -5 -4.5 -10.5t-11.5 -5.5q-82 -6 -103 -6q-66 0 -180 4q-28 -25 -78 -25q-69 0 -123 62.5t-84.5 151t-51 198t-27 191.5t-6.5 143zM55 682q0 -49 7.5 -125t26.5 -174.5t47 -182 t75 -141t104 -57.5q51 0 64 18q1 84 4.5 235.5t5.5 275t2 231.5q0 301 -12 500q-18 8 -64 8q-44 0 -85.5 -35.5t-70 -89t-47.5 -103.5t-28 -90q-29 -139 -29 -270z" />
<glyph unicode="&#x178;" horiz-adv-x="387" d="M10 1274q0 4 5.5 8t11.5 4q9 0 14 -10q0 -60 27 -156.5t69 -215t53 -156.5q4 13 47.5 154.5t61.5 213.5q12 57 29 113l14 41l2 8q0 10 16 10q12 0 17 -10q0 -13 -5 -29.5t-14 -38.5t-12 -30q-14 -56 -43.5 -156.5t-40.5 -140.5q-2 -7 -9.5 -36t-13.5 -51.5t-15.5 -48.5 t-18.5 -40q0 -66 -2 -201t-2 -203q0 -176 8 -299q-3 -10 -16 -10q-14 0 -17 8q-8 120 -8 293q0 68 2 207t2 209q-28 61 -39 127q-10 34 -40 118.5t-40 128.5q-7 28 -18.5 56.5t-16.5 60.5q0 3 -3 20t-3 25q-2 6 -2 27zM92 1380q0 10 7.5 16.5t15.5 6.5q22 0 22 -21 q0 -9 -7 -15.5t-15 -6.5t-15.5 6.5t-7.5 13.5zM244 1380q0 8 6.5 15.5t13.5 7.5q10 0 16.5 -7.5t6.5 -15.5q0 -22 -21 -22q-9 0 -15.5 7t-6.5 15z" />
<glyph unicode="&#x2c6;" horiz-adv-x="286" d="M0 1368q0 14 31.5 47.5t44.5 38.5q0 1 11 16t17.5 23t17 16.5t19.5 8.5q19 0 82.5 -67t63.5 -79q0 -14 -15 -14q-10 0 -14 4q-14 15 -51.5 58.5t-65.5 68.5q-22 -35 -112 -125q-6 -6 -19 -6q-10 0 -10 10z" />
<glyph unicode="&#x2dc;" horiz-adv-x="303" d="M0 1405q0 24 26 42.5t50 18.5q27 0 69 -30t45 -31q12 -6 23 -6q15 0 31 4q8 4 15.5 10t10.5 10l4 4q6 13 19 13q10 0 10 -13q0 -19 -29 -38q-31 -19 -57 -19q-18 0 -33.5 7.5t-38.5 24t-36 23.5q-18 11 -33 11q-34 0 -47 -33q0 -12 -15 -12q-14 0 -14 14z" />
<glyph unicode="&#x2000;" horiz-adv-x="787" />
<glyph unicode="&#x2001;" horiz-adv-x="1575" />
<glyph unicode="&#x2002;" horiz-adv-x="787" />
<glyph unicode="&#x2003;" horiz-adv-x="1575" />
<glyph unicode="&#x2004;" horiz-adv-x="525" />
<glyph unicode="&#x2005;" horiz-adv-x="393" />
<glyph unicode="&#x2006;" horiz-adv-x="262" />
<glyph unicode="&#x2007;" horiz-adv-x="262" />
<glyph unicode="&#x2008;" horiz-adv-x="196" />
<glyph unicode="&#x2009;" horiz-adv-x="315" />
<glyph unicode="&#x200a;" horiz-adv-x="87" />
<glyph unicode="&#x2010;" horiz-adv-x="284" d="M12 639q0 16 6 16q20 0 39.5 1t42.5 1q22 0 35 -1t16 -1t8 -0.5t13.5 -1t30.5 -0.5h59q10 0 10 -16q0 -8 -8 -16q-18 0 -39 2t-45 2h-65q-48 0 -95 2q-8 3 -8 12z" />
<glyph unicode="&#x2011;" horiz-adv-x="284" d="M12 639q0 16 6 16q20 0 39.5 1t42.5 1q22 0 35 -1t16 -1t8 -0.5t13.5 -1t30.5 -0.5h59q10 0 10 -16q0 -8 -8 -16q-18 0 -39 2t-45 2h-65q-48 0 -95 2q-8 3 -8 12z" />
<glyph unicode="&#x2012;" horiz-adv-x="284" d="M12 639q0 16 6 16q20 0 39.5 1t42.5 1q22 0 35 -1t16 -1t8 -0.5t13.5 -1t30.5 -0.5h59q10 0 10 -16q0 -8 -8 -16q-18 0 -39 2t-45 2h-65q-48 0 -95 2q-8 3 -8 12z" />
<glyph unicode="&#x2013;" horiz-adv-x="415" d="M12 643q0 10 13 14q16 0 71 -1t154 -1q71 0 139 -2q14 -2 14 -14q0 -16 -10 -16q-29 0 -58 -1t-65 -1q-87 0 -156.5 3t-82.5 3q-19 0 -19 16z" />
<glyph unicode="&#x2014;" horiz-adv-x="765" d="M12 639q0 5 5 12.5t10 7.5q29 0 231 -1t238 -1q87 0 156.5 -1t82.5 -1q8 0 13.5 -6.5t5.5 -13.5q0 -10 -13 -14q-16 0 -71 1t-154 1q-421 0 -489 2q-15 3 -15 14z" />
<glyph unicode="&#x2018;" horiz-adv-x="180" d="M29 866q13 35 22.5 73.5t21 96.5t15.5 76q4 17 13.5 50.5t14.5 60t5 51.5q0 4 4.5 8t9.5 4q12 0 17 -10q0 -26 -4 -50.5t-13.5 -65t-11.5 -50.5q-34 -177 -62 -248q-9 -6 -18 -6q-14 0 -14 10z" />
<glyph unicode="&#x2019;" horiz-adv-x="167" d="M29 874q0 27 8 76t18 72q3 24 16.5 70.5t16.5 72.5q1 14 9.5 53t8.5 60q0 4 5.5 8t11.5 4t16 -10q0 -17 -3 -36.5t-8 -43.5t-7 -37q-6 -32 -17.5 -76t-15.5 -67q-1 -12 -14 -69.5t-13 -78.5q-5 -8 -16 -8q-16 0 -16 10z" />
<glyph unicode="&#x201a;" horiz-adv-x="180" d="M29 -78q0 26 4 51.5t13.5 63t12.5 51.5q2 11 9 48t10.5 54t10.5 46.5t15 53.5t17 46q6 6 18 6q13 0 13 -10q-13 -35 -23 -76t-20 -92t-17 -78q-2 -7 -10.5 -38.5t-11 -44t-6 -36t-3.5 -43.5q0 -12 -16 -12q-13 0 -16 10z" />
<glyph unicode="&#x201c;" horiz-adv-x="299" d="M29 870q4 17 27 116t33.5 163t10.5 121q0 10 17 10q12 0 16 -8q0 -60 -10.5 -123.5t-33.5 -159.5t-28 -121q-3 -8 -16 -8q-16 0 -16 10zM145 870q14 35 24 73.5t21 96.5t15 76q4 17 13.5 50.5t14.5 60t5 51.5q0 4 5.5 8t10.5 4q11 0 16 -10q0 -26 -4 -51.5t-13.5 -63 t-12.5 -51.5q-4 -20 -12 -61.5t-13.5 -66t-15 -59t-21.5 -61.5q-6 -6 -18 -6q-15 0 -15 10z" />
<glyph unicode="&#x201d;" horiz-adv-x="282" d="M29 885q0 24 8.5 63.5t21.5 86t17 63.5q5 23 7.5 86t16.5 98q4 8 15 8q13 0 16 -10q-11 -33 -13 -94t-9 -90q-2 -13 -25 -96.5t-23 -116.5q-3 -11 -16 -11q-16 0 -16 13zM143 874q0 27 9 76t20 72q2 25 15 72t16 71q2 12 7 35.5t8 42.5t3 35q0 4 6 8t11 4q11 0 16 -10 q0 -17 -3 -36.5t-8 -43.5t-7 -37q-7 -36 -18 -81t-15 -62q-1 -12 -14 -69.5t-13 -78.5q-3 -8 -16 -8q-17 0 -17 10z" />
<glyph unicode="&#x201e;" horiz-adv-x="274" d="M29 -72q0 26 4 51.5t13.5 63t12.5 51.5q2 11 9 48t10.5 54t10.5 46.5t15 53.5t17 46q6 6 18 6q13 0 13 -10q-13 -35 -18.5 -59t-10.5 -59t-10 -62q-4 -17 -18 -67t-24 -93t-10 -68q0 -12 -16 -12q-13 0 -16 10zM137 -70q0 17 2.5 36.5t7.5 44t7 36.5q6 31 17 75.5 t15 67.5q1 13 15 70t14 78q3 8 14 8q17 0 17 -10q0 -29 -8 -77t-19 -71q-2 -27 -16 -73t-17 -70q-1 -14 -9.5 -53t-8.5 -60q0 -12 -16 -12q-12 0 -15 10z" />
<glyph unicode="&#x2022;" horiz-adv-x="251" d="M23 655q0 40 26 66q27 27 76 27q43 0 72.5 -27.5t29.5 -65.5q0 -31 -18 -54t-49 -32q-15 -6 -33 -6q-43 0 -73.5 27t-30.5 65z" />
<glyph unicode="&#x2026;" horiz-adv-x="450" d="M53 16q0 23 21 23q9 0 15.5 -7.5t6.5 -15.5t-6.5 -15t-13.5 -7q-10 0 -16.5 7t-6.5 15zM203 14q0 9 7 16t15 7t15.5 -7t7.5 -14q0 -10 -7.5 -16t-15.5 -6q-22 0 -22 20zM352 14q0 9 7.5 15t15.5 6q22 0 22 -21q0 -9 -8 -15.5t-16 -6.5q-6 0 -13.5 7.5t-7.5 14.5z" />
<glyph unicode="&#x202f;" horiz-adv-x="315" />
<glyph unicode="&#x2039;" horiz-adv-x="247" d="M37 549q0 21 38.5 96.5t43.5 91.5q17 40 32.5 80t22 55t10.5 19q20 0 23 -10q0 -15 -10.5 -42t-25.5 -61t-21 -51q-28 -69 -52.5 -116t-31.5 -64q8 -25 36.5 -81.5t28.5 -57.5q8 -16 34.5 -75t45.5 -91q0 -6 -5.5 -12.5t-8.5 -6.5q-19 0 -91 168q-6 13 -25.5 52t-31.5 67 t-12 39z" />
<glyph unicode="&#x203a;" horiz-adv-x="247" d="M37 242q19 32 45.5 91t34.5 75q0 1 28.5 57.5t36.5 81.5q-7 17 -31.5 64t-52.5 116q-5 14 -19.5 50.5t-23 62.5t-8.5 41q3 10 16 10q4 -4 10.5 -18.5t22.5 -55.5t33 -80q12 -38 41 -94.5t37 -81.5q4 -2 4 -12q0 -11 -12.5 -39t-32 -66.5t-25.5 -52.5q-7 -14 -34 -73.5 t-46 -90.5q-4 -4 -16 -4q-8 0 -8 19z" />
<glyph unicode="&#x205f;" horiz-adv-x="393" />
<glyph unicode="&#x20ac;" horiz-adv-x="536" d="M25 582q0 10 14 12h53v10q0 86 4 115h-53q-8 0 -13 5.5t-5 10.5q0 13 14 17q10 0 28.5 -1t28.5 -1q10 132 29 237q5 34 10 58t15 63t24 66.5t33.5 55t47.5 42t62 14.5q38 0 70 -25.5t52.5 -63t36.5 -85.5t23 -86t11 -72q0 -22 -14 -22q-7 0 -14 7t-7 15q-5 48 -6 54 q-46 241 -158 256q-33 -4 -63 -37.5t-50 -82.5t-32.5 -90.5t-18.5 -76.5q-17 -97 -20 -227h158q71 0 141 -2q12 -5 12 -15q0 -16 -8 -16q-16 0 -40 -1t-42 -1q-16 0 -42.5 0.5t-76 1.5t-100.5 2l-4 -94l2 -31q131 0 189 1t67 1q14 -4 14 -14q0 -17 -18 -17h-87.5t-41 -0.5 t-14.5 -1t-7 -0.5t-19.5 -1t-51.5 -1h-31q6 -128 31 -268q6 -32 17.5 -73t31 -88.5t47.5 -79.5t59 -32q41 0 73.5 33.5t51 85t28 95.5t13.5 83q0 17 19 17q14 0 14 -21q-11 -66 -23.5 -112t-34.5 -96t-57.5 -79.5t-83.5 -35.5q-28 4 -52 20.5t-38 33.5t-29.5 50.5 t-21.5 49.5t-18 53q-56 174 -62 366q-5 0 -23 1t-36 1q-8 0 -8 17z" />
<glyph unicode="&#x2122;" horiz-adv-x="624" d="M37 1268q0 12 12 12q35 4 76 4q29 0 139 -4q15 -3 15 -12q0 -13 -15 -13q-24 0 -54 2.5t-42 2.5q6 -64 6 -130q0 -60 -8 -178q0 -12 -14 -12q-15 0 -15 14q6 92 6 181q0 43 -4 125q-47 0 -88 -3q-14 0 -14 11zM324 963q1 30 1.5 143.5t6.5 173.5q3 10 12 10q8 0 14 -6 q13 -13 33 -64t44 -125t24 -75q8 22 23 64t18 51q0 18 20 80t29 71q6 6 14 6q12 0 15 -12q4 -35 4 -102v-103q0 -59 6 -114q-3 -11 -15 -11q-11 0 -14 8q-6 47 -6.5 136t-1.5 112q-62 -204 -80 -237q-4 -8 -14 -8q-12 0 -15 10q-17 73 -84 239q-2 -42 -3 -124.5t-3 -124.5 q0 -13 -14 -13t-14 15z" />
<glyph unicode="&#xe000;" horiz-adv-x="1290" d="M0 0v1290h1290v-1290h-1290z" />
</font>
</defs>
</svg>
